<svg width="173" height="173" viewBox="0 0 173 173" fill="none" xmlns="http://www.w3.org/2000/svg">
    <path d="M130.759 155.844C124.416 157.718 116.919 158.583 108.125 158.583H64.8749C56.0807 158.583 48.5841 157.718 42.2407 155.844C43.8266 137.102 63.0728 122.325 86.4999 122.325C109.927 122.325 129.173 137.102 130.759 155.844Z" stroke="#292D32" stroke-width="3" stroke-linecap="round" stroke-linejoin="round"/>
    <path d="M108.125 14.4165H64.8748C28.8332 14.4165 14.4165 28.8332 14.4165 64.8748V108.125C14.4165 135.372 22.634 150.294 42.2407 155.844C43.8265 137.102 63.0728 122.325 86.4998 122.325C109.927 122.325 129.173 137.102 130.759 155.844C150.366 150.294 158.583 135.372 158.583 108.125V64.8748C158.583 28.8332 144.166 14.4165 108.125 14.4165ZM86.4998 102.142C72.2273 102.142 60.694 90.5366 60.694 76.2641C60.694 61.9916 72.2273 50.4582 86.4998 50.4582C100.772 50.4582 112.306 61.9916 112.306 76.2641C112.306 90.5366 100.772 102.142 86.4998 102.142Z" stroke="black" stroke-width="3" stroke-linecap="round" stroke-linejoin="round"/>
    </svg>