<svg width="55" height="55" viewBox="0 0 55 55" fill="none" xmlns="http://www.w3.org/2000/svg">
    <path d="M27.5459 47.0481C22.2063 47.0481 16.8667 46.2002 11.8021 44.5044C9.87711 43.8398 8.41044 42.4877 7.76878 40.7231C7.10419 38.9586 7.33336 37.0106 8.38753 35.269L11.0229 30.8919C11.5729 29.9752 12.0771 28.1419 12.0771 27.0648V20.4419C12.0771 11.9169 19.0209 4.97314 27.5459 4.97314C36.0709 4.97314 43.0146 11.9169 43.0146 20.4419V27.0648C43.0146 28.119 43.5188 29.9752 44.0688 30.9148L46.6813 35.269C47.6667 36.919 47.85 38.9127 47.1854 40.7231C46.5209 42.5336 45.0771 43.9086 43.2667 44.5044C38.225 46.2002 32.8854 47.0481 27.5459 47.0481ZM27.5459 8.41064C20.9229 8.41064 15.5146 13.7961 15.5146 20.4419V27.0648C15.5146 28.7377 14.8271 31.2127 13.9792 32.6565L11.3438 37.0336C10.8396 37.8815 10.7021 38.7752 11 39.5315C11.275 40.3106 11.9625 40.9065 12.9021 41.2273C22.4813 44.4356 32.6334 44.4356 42.2125 41.2273C43.0375 40.9523 43.6792 40.3336 43.9771 39.5086C44.275 38.6836 44.2063 37.7898 43.7479 37.0336L41.1125 32.6565C40.2417 31.1669 39.5771 28.7148 39.5771 27.0419V20.4419C39.5771 13.7961 34.1917 8.41064 27.5459 8.41064Z" fill="#292D32"/>
    <path d="M31.8083 9.0291C31.6479 9.0291 31.4875 9.00619 31.3271 8.96035C30.6625 8.77702 30.0208 8.63952 29.4021 8.54785C27.4542 8.29577 25.575 8.43327 23.8104 8.96035C23.1687 9.1666 22.4812 8.96035 22.0458 8.4791C21.6104 7.99785 21.4729 7.31035 21.725 6.6916C22.6646 4.28535 24.9562 2.7041 27.5687 2.7041C30.1812 2.7041 32.4729 4.26244 33.4125 6.6916C33.6417 7.31035 33.5271 7.99785 33.0917 8.4791C32.7479 8.84577 32.2667 9.0291 31.8083 9.0291Z" fill="#292D32"/>
    <path d="M27.5459 52.2729C25.2771 52.2729 23.0771 51.3563 21.473 49.7521C19.8688 48.1479 18.9521 45.9479 18.9521 43.6792H22.3896C22.3896 45.0313 22.9396 46.3604 23.9021 47.3229C24.8646 48.2854 26.1938 48.8354 27.5459 48.8354C30.3876 48.8354 32.7021 46.5209 32.7021 43.6792H36.1396C36.1396 48.4229 32.2896 52.2729 27.5459 52.2729Z" fill="#292D32"/>
    </svg>
    