<svg width="148" height="143" viewBox="0 0 148 143" fill="none" xmlns="http://www.w3.org/2000/svg">
    <path d="M110.396 43.0977C110.028 43.0385 109.598 43.0385 109.23 43.0977C100.767 42.8019 94.0203 36.1168 94.0203 27.8345C94.0203 19.3747 101.073 12.5713 109.844 12.5713C118.614 12.5713 125.667 19.4338 125.667 27.8345C125.606 36.1168 118.859 42.8019 110.396 43.0977Z" stroke="#292D32" stroke-width="1.5" stroke-linecap="round" stroke-linejoin="round"/>
    <path d="M104.079 86.1658C112.481 87.5264 121.742 86.1066 128.243 81.9063C136.891 76.3453 136.891 67.2347 128.243 61.6737C121.681 57.4733 112.297 56.0535 103.895 57.4733" stroke="#292D32" stroke-width="1.5" stroke-linecap="round" stroke-linejoin="round"/>
    <path d="M36.6144 43.0977C36.9824 43.0385 37.4117 43.0385 37.7797 43.0977C46.2434 42.8019 52.9898 36.1168 52.9898 27.8345C52.9898 19.3747 45.9367 12.5713 37.1664 12.5713C28.3961 12.5713 21.343 19.4338 21.343 27.8345C21.4043 36.1168 28.1508 42.8019 36.6144 43.0977Z" stroke="#292D32" stroke-width="1.5" stroke-linecap="round" stroke-linejoin="round"/>
    <path d="M42.9316 86.1658C34.5293 87.5264 25.2683 86.1066 18.7672 81.9063C10.1196 76.3453 10.1196 67.2347 18.7672 61.6737C25.3297 57.4733 34.7133 56.0535 43.1156 57.4733" stroke="#292D32" stroke-width="1.5" stroke-linecap="round" stroke-linejoin="round"/>
    <path d="M73.5973 87.2901C73.2293 87.2309 72.8 87.2309 72.432 87.2901C63.9683 86.9943 57.2219 80.3092 57.2219 72.0269C57.2219 63.567 64.275 56.7637 73.0453 56.7637C81.8156 56.7637 88.8687 63.6262 88.8687 72.0269C88.8074 80.3092 82.0609 87.0534 73.5973 87.2901Z" stroke="#292D32" stroke-width="1.5" stroke-linecap="round" stroke-linejoin="round"/>
    <path d="M55.7499 105.925C47.1022 111.486 47.1022 120.597 55.7499 126.158C65.5629 132.488 81.6316 132.488 91.4445 126.158C100.092 120.597 100.092 111.486 91.4445 105.925C81.6929 99.6544 65.5629 99.6544 55.7499 105.925Z" stroke="#292D32" stroke-width="1.5" stroke-linecap="round" stroke-linejoin="round"/>
    </svg>
    