<svg width="55" height="55" viewBox="0 0 55 55" fill="none" xmlns="http://www.w3.org/2000/svg">
    <path opacity="0.4" d="M37.1022 4.5835H17.8981C9.55641 4.5835 4.5835 9.55641 4.5835 17.8981V37.0793C4.5835 45.4439 9.55641 50.4168 17.8981 50.4168H37.0793C45.421 50.4168 50.3939 45.4439 50.3939 37.1022V17.8981C50.4168 9.55641 45.4439 4.5835 37.1022 4.5835Z" fill="#292D32"/>
    <path d="M38.9582 18.9062H16.0415C15.1019 18.9062 14.3228 18.1271 14.3228 17.1875C14.3228 16.2479 15.1019 15.4688 16.0415 15.4688H38.9582C39.8978 15.4688 40.6769 16.2479 40.6769 17.1875C40.6769 18.1271 39.8978 18.9062 38.9582 18.9062Z" fill="#292D32"/>
    <path d="M38.9582 29.2188H16.0415C15.1019 29.2188 14.3228 28.4396 14.3228 27.5C14.3228 26.5604 15.1019 25.7812 16.0415 25.7812H38.9582C39.8978 25.7812 40.6769 26.5604 40.6769 27.5C40.6769 28.4396 39.8978 29.2188 38.9582 29.2188Z" fill="#292D32"/>
    <path d="M38.9582 39.5312H16.0415C15.1019 39.5312 14.3228 38.7521 14.3228 37.8125C14.3228 36.8729 15.1019 36.0938 16.0415 36.0938H38.9582C39.8978 36.0938 40.6769 36.8729 40.6769 37.8125C40.6769 38.7521 39.8978 39.5312 38.9582 39.5312Z" fill="#292D32"/>
</svg>
    