<svg xmlns="http://www.w3.org/2000/svg" width="92" height="92" viewBox="0 0 92 92" fill="none">
    <path d="M46.6116 41.6682C46.2283 41.6298 45.7683 41.6298 45.3466 41.6682C36.2233 41.3615 28.9783 33.8865 28.9783 24.6865C28.9783 15.2948 36.5683 7.6665 45.9983 7.6665C55.3899 7.6665 63.0183 15.2948 63.0183 24.6865C62.9799 33.8865 55.7349 41.3615 46.6116 41.6682Z" stroke="#292D32" stroke-width="1.5" stroke-linecap="round" stroke-linejoin="round"/>
    <path d="M27.4455 55.8135C18.1689 62.0235 18.1689 72.1435 27.4455 78.3152C37.9872 85.3685 55.2755 85.3685 65.8172 78.3152C75.0939 72.1052 75.0939 61.9852 65.8172 55.8135C55.3139 48.7985 38.0255 48.7985 27.4455 55.8135Z" stroke="#292D32" stroke-width="1.5" stroke-linecap="round" stroke-linejoin="round"/>
    </svg>