<svg width="213" height="213" viewBox="0 0 213 213" fill="none" xmlns="http://www.w3.org/2000/svg">
    <path d="M101.708 121.854C115.481 121.854 126.646 110.688 126.646 96.9148C126.646 83.1415 115.481 71.9761 101.708 71.9761C87.9342 71.9761 76.7688 83.1415 76.7688 96.9148C76.7688 110.688 87.9342 121.854 101.708 121.854Z" stroke="#292D32" stroke-width="3" stroke-linecap="round" stroke-linejoin="round"/>
    <path d="M147.769 179.275C147.769 158.596 127.179 141.733 101.707 141.733C76.2362 141.733 55.6462 158.508 55.6462 179.275" stroke="#292D32" stroke-width="3" stroke-linecap="round" stroke-linejoin="round"/>
    <path d="M186.375 110.938C186.375 157.531 148.656 195.25 102.062 195.25C55.4688 195.25 17.75 157.531 17.75 110.938C17.75 64.3438 55.4688 26.625 102.062 26.625C113.689 26.625 124.783 28.9324 134.9 33.1924C133.746 36.7424 133.125 40.47 133.125 44.375C133.125 51.0312 134.989 57.3325 138.273 62.6575C140.048 65.675 142.355 68.426 145.018 70.7335C151.23 76.4135 159.484 79.875 168.625 79.875C172.53 79.875 176.258 79.2536 179.719 78.0111C183.979 88.1286 186.375 99.3113 186.375 110.938Z" stroke="#292D32" stroke-width="3" stroke-linecap="round" stroke-linejoin="round"/>
    <path d="M204.125 44.375C204.125 47.215 203.77 49.9662 203.06 52.6287C202.261 56.1787 200.841 59.64 198.977 62.6575C194.717 69.8462 187.884 75.4373 179.719 78.0111C176.258 79.2536 172.53 79.875 168.625 79.875C159.484 79.875 151.23 76.4135 145.018 70.7335C142.355 68.426 140.048 65.675 138.273 62.6575C134.989 57.3325 133.125 51.0312 133.125 44.375C133.125 40.47 133.746 36.7424 134.9 33.1924C136.586 28.0449 139.426 23.4302 143.154 19.6139C149.633 12.9577 158.685 8.875 168.625 8.875C179.097 8.875 188.594 13.4014 194.984 20.6789C200.664 26.9802 204.125 35.3225 204.125 44.375Z" stroke="#292D32" stroke-width="3" stroke-miterlimit="10" stroke-linecap="round" stroke-linejoin="round"/>
    <path d="M181.849 44.1973H155.401" stroke="#292D32" stroke-width="3" stroke-miterlimit="10" stroke-linecap="round" stroke-linejoin="round"/>
    <path d="M168.625 31.2402V57.7764" stroke="#292D32" stroke-width="3" stroke-miterlimit="10" stroke-linecap="round" stroke-linejoin="round"/>
    </svg>
    