<svg xmlns="http://www.w3.org/2000/svg" width="55" height="55" viewBox="0 0 55 55" fill="none">
    <path d="M27.7766 31.0065C27.7307 31.0065 27.662 31.0065 27.6161 31.0065C27.5474 31.0065 27.4557 31.0065 27.387 31.0065C22.1849 30.8461 18.2891 26.7898 18.2891 21.794C18.2891 16.7065 22.437 12.5586 27.5245 12.5586C32.612 12.5586 36.7599 16.7065 36.7599 21.794C36.737 26.8128 32.8182 30.8461 27.8453 31.0065C27.7995 31.0065 27.7995 31.0065 27.7766 31.0065ZM27.5016 15.9732C24.2932 15.9732 21.7036 18.5857 21.7036 21.7711C21.7036 24.9107 24.1557 27.4544 27.2724 27.569C27.3411 27.5461 27.5703 27.5461 27.7995 27.569C30.8703 27.4086 33.2766 24.8878 33.2995 21.7711C33.2995 18.5857 30.7099 15.9732 27.5016 15.9732Z" fill="#292D32"/>
    <path d="M27.4986 52.1352C21.334 52.1352 15.4444 49.8435 10.884 45.6727C10.4715 45.306 10.2882 44.756 10.334 44.2289C10.6319 41.5018 12.3278 38.9581 15.1465 37.0789C21.9757 32.5414 33.0444 32.5414 39.8507 37.0789C42.6694 38.981 44.3653 41.5018 44.6632 44.2289C44.7319 44.7789 44.5257 45.306 44.1132 45.6727C39.5528 49.8435 33.6632 52.1352 27.4986 52.1352ZM13.9319 43.7706C17.7361 46.956 22.5257 48.6977 27.4986 48.6977C32.4715 48.6977 37.2611 46.956 41.0653 43.7706C40.6528 42.3727 39.5528 41.0206 37.9257 39.9206C32.2882 36.1622 22.7319 36.1622 17.0486 39.9206C15.4215 41.0206 14.3444 42.3727 13.9319 43.7706Z" fill="#292D32"/>
    <path d="M27.5007 52.1351C13.9111 52.1351 2.86523 41.0893 2.86523 27.4997C2.86523 13.9101 13.9111 2.86426 27.5007 2.86426C41.0902 2.86426 52.1361 13.9101 52.1361 27.4997C52.1361 41.0893 41.0902 52.1351 27.5007 52.1351ZM27.5007 6.30176C15.8132 6.30176 6.30273 15.8122 6.30273 27.4997C6.30273 39.1872 15.8132 48.6976 27.5007 48.6976C39.1882 48.6976 48.6986 39.1872 48.6986 27.4997C48.6986 15.8122 39.1882 6.30176 27.5007 6.30176Z" fill="#292D32"/>
  </svg>