<svg width="1442" height="1053" viewBox="0 0 1442 1053" fill="none" xmlns="http://www.w3.org/2000/svg">
<rect width="1442" height="1053" fill="white"/>
<g filter="url(#filter0_d_362_133)">
<path d="M478.226 82.072C477.842 82.392 477.122 82.824 476.066 83.368C475.042 83.912 473.778 84.392 472.274 84.808C470.77 85.224 469.106 85.416 467.282 85.384C464.498 85.32 462.002 84.824 459.794 83.896C457.618 82.936 455.762 81.64 454.226 80.008C452.722 78.376 451.57 76.504 450.77 74.392C449.97 72.28 449.57 70.024 449.57 67.624C449.57 64.936 449.97 62.472 450.77 60.232C451.602 57.992 452.77 56.056 454.274 54.424C455.81 52.792 457.634 51.528 459.746 50.632C461.858 49.736 464.194 49.288 466.754 49.288C469.122 49.288 471.218 49.608 473.042 50.248C474.866 50.888 476.354 51.576 477.506 52.312L474.77 58.888C473.97 58.28 472.898 57.656 471.554 57.016C470.242 56.344 468.722 56.008 466.994 56.008C465.65 56.008 464.354 56.296 463.106 56.872C461.89 57.416 460.802 58.2 459.842 59.224C458.914 60.248 458.178 61.448 457.634 62.824C457.09 64.168 456.818 65.64 456.818 67.24C456.818 68.936 457.058 70.488 457.538 71.896C458.05 73.304 458.77 74.52 459.698 75.544C460.626 76.536 461.73 77.304 463.01 77.848C464.322 78.392 465.794 78.664 467.426 78.664C469.314 78.664 470.93 78.36 472.274 77.752C473.618 77.144 474.642 76.504 475.346 75.832L478.226 82.072ZM483.039 67.384C483.039 64.952 483.503 62.648 484.431 60.472C485.359 58.296 486.639 56.376 488.271 54.712C489.935 53.016 491.855 51.688 494.031 50.728C496.207 49.768 498.543 49.288 501.039 49.288C503.503 49.288 505.823 49.768 507.999 50.728C510.175 51.688 512.095 53.016 513.759 54.712C515.455 56.376 516.767 58.296 517.695 60.472C518.655 62.648 519.135 64.952 519.135 67.384C519.135 69.88 518.655 72.216 517.695 74.392C516.767 76.568 515.455 78.488 513.759 80.152C512.095 81.784 510.175 83.064 507.999 83.992C505.823 84.92 503.503 85.384 501.039 85.384C498.543 85.384 496.207 84.92 494.031 83.992C491.855 83.064 489.935 81.784 488.271 80.152C486.639 78.488 485.359 76.568 484.431 74.392C483.503 72.216 483.039 69.88 483.039 67.384ZM490.239 67.384C490.239 68.952 490.511 70.424 491.055 71.8C491.631 73.144 492.415 74.344 493.407 75.4C494.431 76.424 495.599 77.224 496.911 77.8C498.255 78.376 499.711 78.664 501.279 78.664C502.783 78.664 504.175 78.376 505.455 77.8C506.767 77.224 507.903 76.424 508.863 75.4C509.823 74.344 510.575 73.144 511.119 71.8C511.663 70.424 511.935 68.952 511.935 67.384C511.935 65.784 511.647 64.296 511.071 62.92C510.527 61.544 509.759 60.344 508.767 59.32C507.807 58.264 506.671 57.448 505.359 56.872C504.047 56.296 502.623 56.008 501.087 56.008C499.551 56.008 498.127 56.296 496.815 56.872C495.503 57.448 494.351 58.264 493.359 59.32C492.367 60.344 491.599 61.544 491.055 62.92C490.511 64.296 490.239 65.784 490.239 67.384ZM504.495 49.624C505.615 49.624 506.367 49.384 506.751 48.904C507.167 48.392 507.519 47.448 507.807 46.072H512.751C512.399 48.152 511.855 49.736 511.119 50.824C510.415 51.912 509.503 52.648 508.383 53.032C507.295 53.416 505.999 53.608 504.495 53.608V49.624ZM568.179 82.072C567.795 82.392 567.075 82.824 566.019 83.368C564.995 83.912 563.731 84.392 562.227 84.808C560.723 85.224 559.059 85.416 557.235 85.384C554.451 85.32 551.955 84.824 549.747 83.896C547.571 82.936 545.715 81.64 544.179 80.008C542.675 78.376 541.523 76.504 540.723 74.392C539.923 72.28 539.523 70.024 539.523 67.624C539.523 64.936 539.923 62.472 540.723 60.232C541.555 57.992 542.723 56.056 544.227 54.424C545.763 52.792 547.587 51.528 549.699 50.632C551.811 49.736 554.147 49.288 556.707 49.288C559.075 49.288 561.171 49.608 562.995 50.248C564.819 50.888 566.307 51.576 567.459 52.312L564.723 58.888C563.923 58.28 562.851 57.656 561.507 57.016C560.195 56.344 558.675 56.008 556.947 56.008C555.603 56.008 554.307 56.296 553.059 56.872C551.843 57.416 550.755 58.2 549.795 59.224C548.867 60.248 548.131 61.448 547.587 62.824C547.043 64.168 546.771 65.64 546.771 67.24C546.771 68.936 547.011 70.488 547.491 71.896C548.003 73.304 548.723 74.52 549.651 75.544C550.579 76.536 551.683 77.304 552.963 77.848C554.275 78.392 555.747 78.664 557.379 78.664C559.267 78.664 560.883 78.36 562.227 77.752C563.571 77.144 564.595 76.504 565.299 75.832L568.179 82.072ZM571.168 85L587.104 48.28H587.488L603.424 85H595.36L585.184 59.176L590.224 55.72L578.032 85H571.168ZM582.064 72.232H592.672L595.12 78.088H579.904L582.064 72.232ZM590.464 45.256L586.72 41.704L588.352 41.224L584.56 45.256H578.512L587.392 36.424H587.44L596.512 45.256H590.464ZM602.8 33.64L595.696 40.12H591.616L595.36 33.64H602.8ZM613.642 71.944C613.642 73.064 613.978 74.136 614.65 75.16C615.322 76.184 616.202 77.016 617.29 77.656C618.41 78.296 619.626 78.616 620.938 78.616C622.378 78.616 623.658 78.296 624.778 77.656C625.898 77.016 626.778 76.184 627.418 75.16C628.09 74.136 628.426 73.064 628.426 71.944V49.672H635.29V72.088C635.29 74.68 634.65 76.984 633.37 79C632.09 80.984 630.362 82.552 628.186 83.704C626.01 84.824 623.594 85.384 620.938 85.384C618.314 85.384 615.914 84.824 613.738 83.704C611.594 82.552 609.882 80.984 608.602 79C607.322 76.984 606.682 74.68 606.682 72.088V49.672H613.642V71.944ZM687.948 81.448C687.532 81.896 686.876 82.36 685.98 82.84C685.084 83.288 684.044 83.704 682.86 84.088C681.708 84.472 680.524 84.776 679.308 85C678.092 85.256 676.94 85.384 675.852 85.384C672.972 85.384 670.38 84.968 668.076 84.136C665.772 83.272 663.804 82.088 662.172 80.584C660.54 79.048 659.292 77.24 658.428 75.16C657.564 73.08 657.132 70.808 657.132 68.344C657.132 65.112 657.612 62.312 658.572 59.944C659.564 57.544 660.892 55.56 662.556 53.992C664.252 52.392 666.188 51.208 668.364 50.44C670.572 49.672 672.876 49.288 675.276 49.288C677.548 49.288 679.628 49.544 681.516 50.056C683.404 50.536 685.004 51.144 686.316 51.88L684.06 58.36C683.484 58.04 682.716 57.72 681.756 57.4C680.796 57.08 679.82 56.824 678.828 56.632C677.836 56.408 676.956 56.296 676.188 56.296C674.268 56.296 672.572 56.536 671.1 57.016C669.628 57.496 668.38 58.216 667.356 59.176C666.364 60.136 665.612 61.336 665.1 62.776C664.588 64.184 664.332 65.832 664.332 67.72C664.332 69.384 664.62 70.888 665.196 72.232C665.772 73.544 666.572 74.664 667.596 75.592C668.652 76.52 669.884 77.224 671.292 77.704C672.732 78.184 674.316 78.424 676.044 78.424C677.036 78.424 677.948 78.36 678.78 78.232C679.612 78.072 680.316 77.832 680.892 77.512V73.24H674.796V66.52H687.948V81.448ZM695.855 49.672H702.815V85H695.855V49.672ZM707.949 85L723.885 48.28H724.269L740.205 85H732.141L721.965 59.176L727.005 55.72L714.813 85H707.949ZM718.845 72.232H729.453L731.901 78.088H716.685L718.845 72.232ZM723.597 43.816C724.141 43.432 724.589 43.048 724.941 42.664C725.293 42.28 725.469 41.816 725.469 41.272C725.469 40.824 725.357 40.456 725.133 40.168C724.941 39.848 724.589 39.688 724.077 39.688C723.661 39.688 723.277 39.816 722.925 40.072C722.605 40.328 722.365 40.632 722.205 40.984L719.805 39.544C720.349 38.36 721.101 37.496 722.061 36.952C723.021 36.376 723.997 36.088 724.989 36.088C726.013 36.088 726.829 36.312 727.437 36.76C728.045 37.176 728.477 37.72 728.733 38.392C729.021 39.032 729.165 39.672 729.165 40.312C729.165 41.56 728.749 42.6 727.917 43.432C727.085 44.264 726.109 44.984 724.989 45.592L723.597 43.816ZM745.355 49.672H752.315V85H745.355V49.672ZM774.642 49.672H798.45V56.392H789.858V85H782.898V56.392H774.642V49.672ZM834.879 49.672V85H827.919V70.648H812.127V85H805.167V49.672H812.127V63.928H827.919V49.672H834.879ZM850.22 71.944C850.22 73.064 850.556 74.136 851.228 75.16C851.9 76.184 852.78 77.016 853.868 77.656C854.988 78.296 856.204 78.616 857.516 78.616C858.956 78.616 860.236 78.296 861.356 77.656C862.476 77.016 863.356 76.184 863.996 75.16C864.668 74.136 865.004 73.064 865.004 71.944V49.672H871.868V72.088C871.868 74.68 871.228 76.984 869.948 79C868.668 80.984 866.94 82.552 864.764 83.704C862.588 84.824 860.172 85.384 857.516 85.384C854.892 85.384 852.492 84.824 850.316 83.704C848.172 82.552 846.46 80.984 845.18 79C843.9 76.984 843.26 74.68 843.26 72.088V49.672H850.22V71.944ZM870.812 53.032C871.932 53.032 872.684 52.792 873.068 52.312C873.484 51.8 873.836 50.856 874.124 49.48H879.068C878.716 51.56 878.172 53.144 877.436 54.232C876.732 55.32 875.82 56.056 874.7 56.44C873.612 56.824 872.316 57.016 870.812 57.016V53.032ZM879.789 67.384C879.789 64.952 880.253 62.648 881.181 60.472C882.109 58.296 883.389 56.376 885.021 54.712C886.685 53.016 888.605 51.688 890.781 50.728C892.957 49.768 895.293 49.288 897.789 49.288C900.253 49.288 902.573 49.768 904.749 50.728C906.925 51.688 908.845 53.016 910.509 54.712C912.205 56.376 913.517 58.296 914.445 60.472C915.405 62.648 915.885 64.952 915.885 67.384C915.885 69.88 915.405 72.216 914.445 74.392C913.517 76.568 912.205 78.488 910.509 80.152C908.845 81.784 906.925 83.064 904.749 83.992C902.573 84.92 900.253 85.384 897.789 85.384C895.293 85.384 892.957 84.92 890.781 83.992C888.605 83.064 886.685 81.784 885.021 80.152C883.389 78.488 882.109 76.568 881.181 74.392C880.253 72.216 879.789 69.88 879.789 67.384ZM886.989 67.384C886.989 68.952 887.261 70.424 887.805 71.8C888.381 73.144 889.165 74.344 890.157 75.4C891.181 76.424 892.349 77.224 893.661 77.8C895.005 78.376 896.461 78.664 898.029 78.664C899.533 78.664 900.925 78.376 902.205 77.8C903.517 77.224 904.653 76.424 905.613 75.4C906.573 74.344 907.325 73.144 907.869 71.8C908.413 70.424 908.685 68.952 908.685 67.384C908.685 65.784 908.397 64.296 907.821 62.92C907.277 61.544 906.509 60.344 905.517 59.32C904.557 58.264 903.421 57.448 902.109 56.872C900.797 56.296 899.373 56.008 897.837 56.008C896.301 56.008 894.877 56.296 893.565 56.872C892.253 57.448 891.101 58.264 890.109 59.32C889.117 60.344 888.349 61.544 887.805 62.92C887.261 64.296 886.989 65.784 886.989 67.384ZM901.245 49.624C902.365 49.624 903.117 49.384 903.501 48.904C903.917 48.392 904.269 47.448 904.557 46.072H909.501C909.149 48.152 908.605 49.736 907.869 50.824C907.165 51.912 906.253 52.648 905.133 53.032C904.045 53.416 902.749 53.608 901.245 53.608V49.624ZM897.357 45.256C897.901 44.872 898.349 44.488 898.701 44.104C899.053 43.72 899.229 43.256 899.229 42.712C899.229 42.264 899.117 41.896 898.893 41.608C898.701 41.288 898.349 41.128 897.837 41.128C897.421 41.128 897.037 41.256 896.685 41.512C896.365 41.768 896.125 42.072 895.965 42.424L893.565 40.984C894.109 39.8 894.861 38.936 895.821 38.392C896.781 37.816 897.757 37.528 898.749 37.528C899.773 37.528 900.589 37.752 901.197 38.2C901.805 38.616 902.237 39.16 902.493 39.832C902.781 40.472 902.925 41.112 902.925 41.752C902.925 43 902.509 44.04 901.677 44.872C900.845 45.704 899.869 46.424 898.749 47.032L897.357 45.256ZM954.456 86.44L927.672 62.248L929.736 63.4L929.88 85H922.824V48.28H923.112L949.32 72.376L947.784 71.704L947.64 49.672H954.648V86.44H954.456ZM992.402 81.448C991.986 81.896 991.33 82.36 990.434 82.84C989.538 83.288 988.498 83.704 987.314 84.088C986.162 84.472 984.978 84.776 983.762 85C982.546 85.256 981.394 85.384 980.306 85.384C977.426 85.384 974.834 84.968 972.53 84.136C970.226 83.272 968.258 82.088 966.626 80.584C964.994 79.048 963.746 77.24 962.882 75.16C962.018 73.08 961.586 70.808 961.586 68.344C961.586 65.112 962.066 62.312 963.026 59.944C964.018 57.544 965.346 55.56 967.01 53.992C968.706 52.392 970.642 51.208 972.818 50.44C975.026 49.672 977.33 49.288 979.73 49.288C982.002 49.288 984.082 49.544 985.97 50.056C987.858 50.536 989.458 51.144 990.77 51.88L988.514 58.36C987.938 58.04 987.17 57.72 986.21 57.4C985.25 57.08 984.274 56.824 983.282 56.632C982.29 56.408 981.41 56.296 980.642 56.296C978.722 56.296 977.026 56.536 975.554 57.016C974.082 57.496 972.834 58.216 971.81 59.176C970.818 60.136 970.066 61.336 969.554 62.776C969.042 64.184 968.786 65.832 968.786 67.72C968.786 69.384 969.074 70.888 969.65 72.232C970.226 73.544 971.026 74.664 972.05 75.592C973.106 76.52 974.338 77.224 975.746 77.704C977.186 78.184 978.77 78.424 980.498 78.424C981.49 78.424 982.402 78.36 983.234 78.232C984.066 78.072 984.77 77.832 985.346 77.512V73.24H979.25V66.52H992.402V81.448Z" fill="#EA4335"/>
</g>
<path opacity="0.8" d="M368.625 299C368.625 290.716 375.341 284 383.625 284H1059.63C1067.91 284 1074.62 290.716 1074.62 299V379C1074.62 387.284 1067.91 394 1059.62 394H383.625C375.341 394 368.625 387.284 368.625 379V299Z" stroke="#E8AA42" stroke-width="2"/>
<g opacity="0.8" filter="url(#filter1_d_362_133)">
<rect x="104.125" y="595" width="509" height="108" rx="14" stroke="black" stroke-width="2" shape-rendering="crispEdges"/>
</g>
<g opacity="0.8" filter="url(#filter2_d_362_133)">
<rect x="829.125" y="595" width="509" height="108" rx="14" stroke="black" stroke-width="2" shape-rendering="crispEdges"/>
</g>
<g filter="url(#filter3_d_362_133)">
<path d="M642.586 238.04C642.24 238.413 641.693 238.8 640.946 239.2C640.2 239.573 639.333 239.92 638.346 240.24C637.386 240.56 636.4 240.813 635.386 241C634.373 241.213 633.413 241.32 632.506 241.32C630.106 241.32 627.946 240.973 626.026 240.28C624.106 239.56 622.466 238.573 621.106 237.32C619.746 236.04 618.706 234.533 617.986 232.8C617.266 231.067 616.906 229.173 616.906 227.12C616.906 224.427 617.306 222.093 618.106 220.12C618.933 218.12 620.04 216.467 621.426 215.16C622.84 213.827 624.453 212.84 626.266 212.2C628.106 211.56 630.026 211.24 632.026 211.24C633.92 211.24 635.653 211.453 637.226 211.88C638.8 212.28 640.133 212.787 641.226 213.4L639.346 218.8C638.866 218.533 638.226 218.267 637.426 218C636.626 217.733 635.813 217.52 634.986 217.36C634.16 217.173 633.426 217.08 632.786 217.08C631.186 217.08 629.773 217.28 628.546 217.68C627.32 218.08 626.28 218.68 625.426 219.48C624.6 220.28 623.973 221.28 623.546 222.48C623.12 223.653 622.906 225.027 622.906 226.6C622.906 227.987 623.146 229.24 623.626 230.36C624.106 231.453 624.773 232.387 625.626 233.16C626.506 233.933 627.533 234.52 628.706 234.92C629.906 235.32 631.226 235.52 632.666 235.52C633.493 235.52 634.253 235.467 634.946 235.36C635.64 235.227 636.226 235.027 636.706 234.76V231.2H631.626V225.6H642.586V238.04ZM649.175 211.56H654.975V241H649.175V211.56ZM659.253 241L672.533 210.4H672.853L686.133 241H679.413L670.933 219.48L675.133 216.6L664.973 241H659.253ZM668.333 230.36H677.173L679.213 235.24H666.533L668.333 230.36ZM672.293 206.68C672.747 206.36 673.12 206.04 673.413 205.72C673.707 205.4 673.853 205.013 673.853 204.56C673.853 204.187 673.76 203.88 673.573 203.64C673.413 203.373 673.12 203.24 672.693 203.24C672.347 203.24 672.027 203.347 671.733 203.56C671.467 203.773 671.267 204.027 671.133 204.32L669.133 203.12C669.587 202.133 670.213 201.413 671.013 200.96C671.813 200.48 672.627 200.24 673.453 200.24C674.307 200.24 674.987 200.427 675.493 200.8C676 201.147 676.36 201.6 676.573 202.16C676.813 202.693 676.933 203.227 676.933 203.76C676.933 204.8 676.587 205.667 675.893 206.36C675.2 207.053 674.387 207.653 673.453 208.16L672.293 206.68ZM690.425 211.56H696.225V241H690.425V211.56ZM743.191 242.2L720.871 222.04L722.591 223L722.711 241H716.831V210.4H717.071L738.911 230.48L737.631 229.92L737.511 211.56H743.351V242.2H743.191ZM775.693 211.56V241H769.893V229.04H756.733V241H750.933V211.56H756.733V223.44H769.893V211.56H775.693ZM779.957 241L793.237 210.4H793.557L806.837 241H800.117L791.637 219.48L795.837 216.6L785.677 241H779.957ZM789.037 230.36H797.877L799.917 235.24H787.237L789.037 230.36ZM796.037 207.88L792.917 204.92L794.277 204.52L791.117 207.88H786.077L793.477 200.52H793.517L801.077 207.88H796.037ZM806.317 198.2L800.397 203.6H796.997L800.117 198.2H806.317ZM806.706 211.56H826.546V217.16H819.386V241H813.586V217.16H806.706V211.56Z" fill="black"/>
</g>
<path d="M493.723 316.22L484.723 333.5L479.983 330.92C480.383 330.76 480.803 330.64 481.243 330.56C481.723 330.48 482.163 330.44 482.563 330.44C483.963 330.4 485.363 330.56 486.763 330.92C488.163 331.28 489.423 331.92 490.543 332.84C491.703 333.76 492.623 335.02 493.303 336.62C494.023 338.22 494.383 340.26 494.383 342.74C494.383 345.62 493.703 348.1 492.343 350.18C491.023 352.22 489.283 353.78 487.123 354.86C484.963 355.94 482.623 356.48 480.103 356.48C478.143 356.48 476.083 356.08 473.923 355.28C471.763 354.44 470.043 353.34 468.763 351.98L473.203 344.78C473.803 345.54 474.723 346.28 475.963 347C477.203 347.72 478.503 348.08 479.863 348.08C480.743 348.08 481.603 347.86 482.443 347.42C483.283 346.98 483.983 346.32 484.543 345.44C485.103 344.56 485.383 343.48 485.383 342.2C485.383 340.44 484.883 339.04 483.883 338C482.923 336.96 481.563 336.44 479.803 336.44C478.603 336.44 477.683 336.5 477.043 336.62C476.443 336.7 475.843 336.82 475.243 336.98L475.063 336.74L482.083 323.6L484.603 324.62H472.063V316.22H493.723ZM504.904 351.68C504.904 350.44 505.344 349.4 506.224 348.56C507.144 347.72 508.144 347.3 509.224 347.3C510.224 347.3 511.164 347.72 512.044 348.56C512.964 349.4 513.424 350.44 513.424 351.68C513.424 353 512.964 354.06 512.044 354.86C511.164 355.62 510.224 356 509.224 356C508.144 356 507.144 355.62 506.224 354.86C505.344 354.06 504.904 353 504.904 351.68ZM539.156 356.06C536.876 356.06 534.716 355.66 532.676 354.86C530.676 354.06 528.896 352.84 527.336 351.2C525.816 349.52 524.616 347.42 523.736 344.9C522.856 342.34 522.416 339.34 522.416 335.9C522.416 332.06 522.836 328.86 523.676 326.3C524.516 323.7 525.676 321.62 527.156 320.06C528.676 318.5 530.456 317.4 532.496 316.76C534.536 316.08 536.756 315.74 539.156 315.74C541.436 315.74 543.576 316.14 545.576 316.94C547.616 317.74 549.396 318.98 550.916 320.66C552.476 322.3 553.696 324.4 554.576 326.96C555.456 329.48 555.896 332.46 555.896 335.9C555.896 339.46 555.456 342.52 554.576 345.08C553.696 347.64 552.476 349.74 550.916 351.38C549.356 352.98 547.576 354.16 545.576 354.92C543.576 355.68 541.436 356.06 539.156 356.06ZM539.096 347.72C541.096 347.72 542.656 347.2 543.776 346.16C544.896 345.08 545.676 343.62 546.116 341.78C546.596 339.94 546.836 337.9 546.836 335.66C546.836 333.46 546.596 331.5 546.116 329.78C545.676 328.06 544.896 326.7 543.776 325.7C542.656 324.66 541.096 324.14 539.096 324.14C537.136 324.14 535.596 324.66 534.476 325.7C533.356 326.74 532.576 328.14 532.136 329.9C531.696 331.66 531.476 333.64 531.476 335.84C531.476 338.04 531.696 340.04 532.136 341.84C532.576 343.64 533.356 345.08 534.476 346.16C535.596 347.2 537.136 347.72 539.096 347.72ZM582.832 356.06C580.552 356.06 578.392 355.66 576.352 354.86C574.352 354.06 572.572 352.84 571.012 351.2C569.492 349.52 568.292 347.42 567.412 344.9C566.532 342.34 566.092 339.34 566.092 335.9C566.092 332.06 566.512 328.86 567.352 326.3C568.192 323.7 569.352 321.62 570.832 320.06C572.352 318.5 574.132 317.4 576.172 316.76C578.212 316.08 580.432 315.74 582.832 315.74C585.112 315.74 587.252 316.14 589.252 316.94C591.292 317.74 593.072 318.98 594.592 320.66C596.152 322.3 597.372 324.4 598.252 326.96C599.132 329.48 599.572 332.46 599.572 335.9C599.572 339.46 599.132 342.52 598.252 345.08C597.372 347.64 596.152 349.74 594.592 351.38C593.032 352.98 591.252 354.16 589.252 354.92C587.252 355.68 585.112 356.06 582.832 356.06ZM582.772 347.72C584.772 347.72 586.332 347.2 587.452 346.16C588.572 345.08 589.352 343.62 589.792 341.78C590.272 339.94 590.512 337.9 590.512 335.66C590.512 333.46 590.272 331.5 589.792 329.78C589.352 328.06 588.572 326.7 587.452 325.7C586.332 324.66 584.772 324.14 582.772 324.14C580.812 324.14 579.272 324.66 578.152 325.7C577.032 326.74 576.252 328.14 575.812 329.9C575.372 331.66 575.152 333.64 575.152 335.84C575.152 338.04 575.372 340.04 575.812 341.84C576.252 343.64 577.032 345.08 578.152 346.16C579.272 347.2 580.812 347.72 582.772 347.72ZM626.508 356.06C624.228 356.06 622.068 355.66 620.028 354.86C618.028 354.06 616.248 352.84 614.688 351.2C613.168 349.52 611.968 347.42 611.088 344.9C610.208 342.34 609.768 339.34 609.768 335.9C609.768 332.06 610.188 328.86 611.028 326.3C611.868 323.7 613.028 321.62 614.508 320.06C616.028 318.5 617.808 317.4 619.848 316.76C621.888 316.08 624.108 315.74 626.508 315.74C628.788 315.74 630.928 316.14 632.928 316.94C634.968 317.74 636.748 318.98 638.268 320.66C639.828 322.3 641.048 324.4 641.928 326.96C642.808 329.48 643.248 332.46 643.248 335.9C643.248 339.46 642.808 342.52 641.928 345.08C641.048 347.64 639.828 349.74 638.268 351.38C636.708 352.98 634.928 354.16 632.928 354.92C630.928 355.68 628.788 356.06 626.508 356.06ZM626.448 347.72C628.448 347.72 630.008 347.2 631.128 346.16C632.248 345.08 633.028 343.62 633.468 341.78C633.948 339.94 634.188 337.9 634.188 335.66C634.188 333.46 633.948 331.5 633.468 329.78C633.028 328.06 632.248 326.7 631.128 325.7C630.008 324.66 628.448 324.14 626.448 324.14C624.488 324.14 622.948 324.66 621.828 325.7C620.708 326.74 619.928 328.14 619.488 329.9C619.048 331.66 618.828 333.64 618.828 335.84C618.828 338.04 619.048 340.04 619.488 341.84C619.928 343.64 620.708 345.08 621.828 346.16C622.948 347.2 624.488 347.72 626.448 347.72ZM652.244 351.68C652.244 350.44 652.684 349.4 653.564 348.56C654.484 347.72 655.484 347.3 656.564 347.3C657.564 347.3 658.504 347.72 659.384 348.56C660.304 349.4 660.764 350.44 660.764 351.68C660.764 353 660.304 354.06 659.384 354.86C658.504 355.62 657.564 356 656.564 356C655.484 356 654.484 355.62 653.564 354.86C652.684 354.06 652.244 353 652.244 351.68ZM686.496 356.06C684.216 356.06 682.056 355.66 680.016 354.86C678.016 354.06 676.236 352.84 674.676 351.2C673.156 349.52 671.956 347.42 671.076 344.9C670.196 342.34 669.756 339.34 669.756 335.9C669.756 332.06 670.176 328.86 671.016 326.3C671.856 323.7 673.016 321.62 674.496 320.06C676.016 318.5 677.796 317.4 679.836 316.76C681.876 316.08 684.096 315.74 686.496 315.74C688.776 315.74 690.916 316.14 692.916 316.94C694.956 317.74 696.736 318.98 698.256 320.66C699.816 322.3 701.036 324.4 701.916 326.96C702.796 329.48 703.236 332.46 703.236 335.9C703.236 339.46 702.796 342.52 701.916 345.08C701.036 347.64 699.816 349.74 698.256 351.38C696.696 352.98 694.916 354.16 692.916 354.92C690.916 355.68 688.776 356.06 686.496 356.06ZM686.436 347.72C688.436 347.72 689.996 347.2 691.116 346.16C692.236 345.08 693.016 343.62 693.456 341.78C693.936 339.94 694.176 337.9 694.176 335.66C694.176 333.46 693.936 331.5 693.456 329.78C693.016 328.06 692.236 326.7 691.116 325.7C689.996 324.66 688.436 324.14 686.436 324.14C684.476 324.14 682.936 324.66 681.816 325.7C680.696 326.74 679.916 328.14 679.476 329.9C679.036 331.66 678.816 333.64 678.816 335.84C678.816 338.04 679.036 340.04 679.476 341.84C679.916 343.64 680.696 345.08 681.816 346.16C682.936 347.2 684.476 347.72 686.436 347.72ZM730.172 356.06C727.892 356.06 725.732 355.66 723.692 354.86C721.692 354.06 719.912 352.84 718.352 351.2C716.832 349.52 715.632 347.42 714.752 344.9C713.872 342.34 713.432 339.34 713.432 335.9C713.432 332.06 713.852 328.86 714.692 326.3C715.532 323.7 716.692 321.62 718.172 320.06C719.692 318.5 721.472 317.4 723.512 316.76C725.552 316.08 727.772 315.74 730.172 315.74C732.452 315.74 734.592 316.14 736.592 316.94C738.632 317.74 740.412 318.98 741.932 320.66C743.492 322.3 744.712 324.4 745.592 326.96C746.472 329.48 746.912 332.46 746.912 335.9C746.912 339.46 746.472 342.52 745.592 345.08C744.712 347.64 743.492 349.74 741.932 351.38C740.372 352.98 738.592 354.16 736.592 354.92C734.592 355.68 732.452 356.06 730.172 356.06ZM730.112 347.72C732.112 347.72 733.672 347.2 734.792 346.16C735.912 345.08 736.692 343.62 737.132 341.78C737.612 339.94 737.852 337.9 737.852 335.66C737.852 333.46 737.612 331.5 737.132 329.78C736.692 328.06 735.912 326.7 734.792 325.7C733.672 324.66 732.112 324.14 730.112 324.14C728.152 324.14 726.612 324.66 725.492 325.7C724.372 326.74 723.592 328.14 723.152 329.9C722.712 331.66 722.492 333.64 722.492 335.84C722.492 338.04 722.712 340.04 723.152 341.84C723.592 343.64 724.372 345.08 725.492 346.16C726.612 347.2 728.152 347.72 730.112 347.72ZM773.848 356.06C771.568 356.06 769.408 355.66 767.368 354.86C765.368 354.06 763.588 352.84 762.028 351.2C760.508 349.52 759.308 347.42 758.428 344.9C757.548 342.34 757.108 339.34 757.108 335.9C757.108 332.06 757.528 328.86 758.368 326.3C759.208 323.7 760.368 321.62 761.848 320.06C763.368 318.5 765.148 317.4 767.188 316.76C769.228 316.08 771.448 315.74 773.848 315.74C776.128 315.74 778.268 316.14 780.268 316.94C782.308 317.74 784.088 318.98 785.608 320.66C787.168 322.3 788.388 324.4 789.268 326.96C790.148 329.48 790.588 332.46 790.588 335.9C790.588 339.46 790.148 342.52 789.268 345.08C788.388 347.64 787.168 349.74 785.608 351.38C784.048 352.98 782.268 354.16 780.268 354.92C778.268 355.68 776.128 356.06 773.848 356.06ZM773.788 347.72C775.788 347.72 777.348 347.2 778.468 346.16C779.588 345.08 780.368 343.62 780.808 341.78C781.288 339.94 781.528 337.9 781.528 335.66C781.528 333.46 781.288 331.5 780.808 329.78C780.368 328.06 779.588 326.7 778.468 325.7C777.348 324.66 775.788 324.14 773.788 324.14C771.828 324.14 770.288 324.66 769.168 325.7C768.048 326.74 767.268 328.14 766.828 329.9C766.388 331.66 766.168 333.64 766.168 335.84C766.168 338.04 766.388 340.04 766.828 341.84C767.268 343.64 768.048 345.08 769.168 346.16C770.288 347.2 771.828 347.72 773.788 347.72ZM836.555 311.84L849.455 343.64L844.415 342.62L856.115 311.84H866.435L846.275 358.04L826.115 311.84H836.555ZM919.615 357.8L886.135 327.56L888.715 329L888.895 356H880.075V310.1H880.435L913.195 340.22L911.275 339.38L911.095 311.84H919.855V357.8H919.615ZM938.067 356V311.84H951.267C955.707 311.84 959.487 312.5 962.607 313.82C965.727 315.14 968.227 316.9 970.107 319.1C972.027 321.3 973.427 323.76 974.307 326.48C975.187 329.2 975.627 331.94 975.627 334.7C975.627 337.98 975.027 340.94 973.827 343.58C972.667 346.18 971.067 348.42 969.027 350.3C966.987 352.14 964.627 353.56 961.947 354.56C959.267 355.52 956.427 356 953.427 356H938.067ZM946.767 347.6H951.927C954.127 347.6 956.127 347.32 957.927 346.76C959.727 346.16 961.267 345.3 962.547 344.18C963.867 343.06 964.867 341.66 965.547 339.98C966.267 338.26 966.627 336.3 966.627 334.1C966.627 331.22 966.147 328.88 965.187 327.08C964.267 325.24 963.107 323.82 961.707 322.82C960.347 321.82 958.947 321.14 957.507 320.78C956.067 320.38 954.847 320.18 953.847 320.18H946.767V347.6ZM933.567 330.26H952.467V338.06H933.567V330.26Z" fill="#E57C23"/>
<path d="M146.861 665C148.928 662.9 150.911 660.883 152.811 658.95C154.711 656.983 156.411 655.1 157.911 653.3C159.444 651.467 160.644 649.7 161.511 648C162.411 646.3 162.861 644.65 162.861 643.05C162.861 642.35 162.728 641.717 162.461 641.15C162.228 640.583 161.878 640.1 161.411 639.7C160.978 639.3 160.444 639 159.811 638.8C159.211 638.567 158.528 638.45 157.761 638.45C156.994 638.45 156.311 638.567 155.711 638.8C155.111 639 154.611 639.283 154.211 639.65C153.811 640.017 153.494 640.417 153.261 640.85C153.061 641.283 152.961 641.733 152.961 642.2C152.961 643.267 153.128 644.217 153.461 645.05C153.828 645.85 154.311 646.567 154.911 647.2L150.461 651.25C149.494 650.783 148.661 650 147.961 648.9C147.294 647.8 146.778 646.65 146.411 645.45C146.078 644.217 145.911 643.2 145.911 642.4C145.911 640.567 146.411 638.817 147.411 637.15C148.444 635.483 149.928 634.117 151.861 633.05C153.828 631.983 156.211 631.45 159.011 631.45C161.311 631.45 163.311 631.967 165.011 633C166.711 634.033 168.028 635.4 168.961 637.1C169.928 638.767 170.411 640.55 170.411 642.45C170.411 643.95 170.178 645.4 169.711 646.8C169.244 648.2 168.594 649.583 167.761 650.95C166.961 652.283 166.044 653.617 165.011 654.95C163.978 656.25 162.911 657.583 161.811 658.95L158.511 658H170.811V665H146.861ZM179.062 661.4C179.062 660.367 179.428 659.5 180.162 658.8C180.928 658.1 181.762 657.75 182.662 657.75C183.495 657.75 184.278 658.1 185.012 658.8C185.778 659.5 186.162 660.367 186.162 661.4C186.162 662.5 185.778 663.383 185.012 664.05C184.278 664.683 183.495 665 182.662 665C181.762 665 180.928 664.683 180.162 664.05C179.428 663.383 179.062 662.5 179.062 661.4ZM207.605 665.05C205.705 665.05 203.905 664.717 202.205 664.05C200.539 663.383 199.055 662.367 197.755 661C196.489 659.6 195.489 657.85 194.755 655.75C194.022 653.617 193.655 651.117 193.655 648.25C193.655 645.05 194.005 642.383 194.705 640.25C195.405 638.083 196.372 636.35 197.605 635.05C198.872 633.75 200.355 632.833 202.055 632.3C203.755 631.733 205.605 631.45 207.605 631.45C209.505 631.45 211.289 631.783 212.955 632.45C214.655 633.117 216.139 634.15 217.405 635.55C218.705 636.917 219.722 638.667 220.455 640.8C221.189 642.9 221.555 645.383 221.555 648.25C221.555 651.217 221.189 653.767 220.455 655.9C219.722 658.033 218.705 659.783 217.405 661.15C216.105 662.483 214.622 663.467 212.955 664.1C211.289 664.733 209.505 665.05 207.605 665.05ZM207.555 658.1C209.222 658.1 210.522 657.667 211.455 656.8C212.389 655.9 213.039 654.683 213.405 653.15C213.805 651.617 214.005 649.917 214.005 648.05C214.005 646.217 213.805 644.583 213.405 643.15C213.039 641.717 212.389 640.583 211.455 639.75C210.522 638.883 209.222 638.45 207.555 638.45C205.922 638.45 204.639 638.883 203.705 639.75C202.772 640.617 202.122 641.783 201.755 643.25C201.389 644.717 201.205 646.367 201.205 648.2C201.205 650.033 201.389 651.7 201.755 653.2C202.122 654.7 202.772 655.9 203.705 656.8C204.639 657.667 205.922 658.1 207.555 658.1ZM244.002 665.05C242.102 665.05 240.302 664.717 238.602 664.05C236.935 663.383 235.452 662.367 234.152 661C232.885 659.6 231.885 657.85 231.152 655.75C230.418 653.617 230.052 651.117 230.052 648.25C230.052 645.05 230.402 642.383 231.102 640.25C231.802 638.083 232.768 636.35 234.002 635.05C235.268 633.75 236.752 632.833 238.452 632.3C240.152 631.733 242.002 631.45 244.002 631.45C245.902 631.45 247.685 631.783 249.352 632.45C251.052 633.117 252.535 634.15 253.802 635.55C255.102 636.917 256.118 638.667 256.852 640.8C257.585 642.9 257.952 645.383 257.952 648.25C257.952 651.217 257.585 653.767 256.852 655.9C256.118 658.033 255.102 659.783 253.802 661.15C252.502 662.483 251.018 663.467 249.352 664.1C247.685 664.733 245.902 665.05 244.002 665.05ZM243.952 658.1C245.618 658.1 246.918 657.667 247.852 656.8C248.785 655.9 249.435 654.683 249.802 653.15C250.202 651.617 250.402 649.917 250.402 648.05C250.402 646.217 250.202 644.583 249.802 643.15C249.435 641.717 248.785 640.583 247.852 639.75C246.918 638.883 245.618 638.45 243.952 638.45C242.318 638.45 241.035 638.883 240.102 639.75C239.168 640.617 238.518 641.783 238.152 643.25C237.785 644.717 237.602 646.367 237.602 648.2C237.602 650.033 237.785 651.7 238.152 653.2C238.518 654.7 239.168 655.9 240.102 656.8C241.035 657.667 242.318 658.1 243.952 658.1ZM280.398 665.05C278.498 665.05 276.698 664.717 274.998 664.05C273.332 663.383 271.848 662.367 270.548 661C269.282 659.6 268.282 657.85 267.548 655.75C266.815 653.617 266.448 651.117 266.448 648.25C266.448 645.05 266.798 642.383 267.498 640.25C268.198 638.083 269.165 636.35 270.398 635.05C271.665 633.75 273.148 632.833 274.848 632.3C276.548 631.733 278.398 631.45 280.398 631.45C282.298 631.45 284.082 631.783 285.748 632.45C287.448 633.117 288.932 634.15 290.198 635.55C291.498 636.917 292.515 638.667 293.248 640.8C293.982 642.9 294.348 645.383 294.348 648.25C294.348 651.217 293.982 653.767 293.248 655.9C292.515 658.033 291.498 659.783 290.198 661.15C288.898 662.483 287.415 663.467 285.748 664.1C284.082 664.733 282.298 665.05 280.398 665.05ZM280.348 658.1C282.015 658.1 283.315 657.667 284.248 656.8C285.182 655.9 285.832 654.683 286.198 653.15C286.598 651.617 286.798 649.917 286.798 648.05C286.798 646.217 286.598 644.583 286.198 643.15C285.832 641.717 285.182 640.583 284.248 639.75C283.315 638.883 282.015 638.45 280.348 638.45C278.715 638.45 277.432 638.883 276.498 639.75C275.565 640.617 274.915 641.783 274.548 643.25C274.182 644.717 273.998 646.367 273.998 648.2C273.998 650.033 274.182 651.7 274.548 653.2C274.915 654.7 275.565 655.9 276.498 656.8C277.432 657.667 278.715 658.1 280.348 658.1ZM301.845 661.4C301.845 660.367 302.211 659.5 302.945 658.8C303.711 658.1 304.545 657.75 305.445 657.75C306.278 657.75 307.061 658.1 307.795 658.8C308.561 659.5 308.945 660.367 308.945 661.4C308.945 662.5 308.561 663.383 307.795 664.05C307.061 664.683 306.278 665 305.445 665C304.545 665 303.711 664.683 302.945 664.05C302.211 663.383 301.845 662.5 301.845 661.4ZM330.388 665.05C328.488 665.05 326.688 664.717 324.988 664.05C323.322 663.383 321.838 662.367 320.538 661C319.272 659.6 318.272 657.85 317.538 655.75C316.805 653.617 316.438 651.117 316.438 648.25C316.438 645.05 316.788 642.383 317.488 640.25C318.188 638.083 319.155 636.35 320.388 635.05C321.655 633.75 323.138 632.833 324.838 632.3C326.538 631.733 328.388 631.45 330.388 631.45C332.288 631.45 334.072 631.783 335.738 632.45C337.438 633.117 338.922 634.15 340.188 635.55C341.488 636.917 342.505 638.667 343.238 640.8C343.972 642.9 344.338 645.383 344.338 648.25C344.338 651.217 343.972 653.767 343.238 655.9C342.505 658.033 341.488 659.783 340.188 661.15C338.888 662.483 337.405 663.467 335.738 664.1C334.072 664.733 332.288 665.05 330.388 665.05ZM330.338 658.1C332.005 658.1 333.305 657.667 334.238 656.8C335.172 655.9 335.822 654.683 336.188 653.15C336.588 651.617 336.788 649.917 336.788 648.05C336.788 646.217 336.588 644.583 336.188 643.15C335.822 641.717 335.172 640.583 334.238 639.75C333.305 638.883 332.005 638.45 330.338 638.45C328.705 638.45 327.422 638.883 326.488 639.75C325.555 640.617 324.905 641.783 324.538 643.25C324.172 644.717 323.988 646.367 323.988 648.2C323.988 650.033 324.172 651.7 324.538 653.2C324.905 654.7 325.555 655.9 326.488 656.8C327.422 657.667 328.705 658.1 330.338 658.1ZM366.785 665.05C364.885 665.05 363.085 664.717 361.385 664.05C359.718 663.383 358.235 662.367 356.935 661C355.668 659.6 354.668 657.85 353.935 655.75C353.202 653.617 352.835 651.117 352.835 648.25C352.835 645.05 353.185 642.383 353.885 640.25C354.585 638.083 355.552 636.35 356.785 635.05C358.052 633.75 359.535 632.833 361.235 632.3C362.935 631.733 364.785 631.45 366.785 631.45C368.685 631.45 370.468 631.783 372.135 632.45C373.835 633.117 375.318 634.15 376.585 635.55C377.885 636.917 378.902 638.667 379.635 640.8C380.368 642.9 380.735 645.383 380.735 648.25C380.735 651.217 380.368 653.767 379.635 655.9C378.902 658.033 377.885 659.783 376.585 661.15C375.285 662.483 373.802 663.467 372.135 664.1C370.468 664.733 368.685 665.05 366.785 665.05ZM366.735 658.1C368.402 658.1 369.702 657.667 370.635 656.8C371.568 655.9 372.218 654.683 372.585 653.15C372.985 651.617 373.185 649.917 373.185 648.05C373.185 646.217 372.985 644.583 372.585 643.15C372.218 641.717 371.568 640.583 370.635 639.75C369.702 638.883 368.402 638.45 366.735 638.45C365.102 638.45 363.818 638.883 362.885 639.75C361.952 640.617 361.302 641.783 360.935 643.25C360.568 644.717 360.385 646.367 360.385 648.2C360.385 650.033 360.568 651.7 360.935 653.2C361.302 654.7 361.952 655.9 362.885 656.8C363.818 657.667 365.102 658.1 366.735 658.1ZM403.181 665.05C401.281 665.05 399.481 664.717 397.781 664.05C396.115 663.383 394.631 662.367 393.331 661C392.065 659.6 391.065 657.85 390.331 655.75C389.598 653.617 389.231 651.117 389.231 648.25C389.231 645.05 389.581 642.383 390.281 640.25C390.981 638.083 391.948 636.35 393.181 635.05C394.448 633.75 395.931 632.833 397.631 632.3C399.331 631.733 401.181 631.45 403.181 631.45C405.081 631.45 406.865 631.783 408.531 632.45C410.231 633.117 411.715 634.15 412.981 635.55C414.281 636.917 415.298 638.667 416.031 640.8C416.765 642.9 417.131 645.383 417.131 648.25C417.131 651.217 416.765 653.767 416.031 655.9C415.298 658.033 414.281 659.783 412.981 661.15C411.681 662.483 410.198 663.467 408.531 664.1C406.865 664.733 405.081 665.05 403.181 665.05ZM403.131 658.1C404.798 658.1 406.098 657.667 407.031 656.8C407.965 655.9 408.615 654.683 408.981 653.15C409.381 651.617 409.581 649.917 409.581 648.05C409.581 646.217 409.381 644.583 408.981 643.15C408.615 641.717 407.965 640.583 407.031 639.75C406.098 638.883 404.798 638.45 403.131 638.45C401.498 638.45 400.215 638.883 399.281 639.75C398.348 640.617 397.698 641.783 397.331 643.25C396.965 644.717 396.781 646.367 396.781 648.2C396.781 650.033 396.965 651.7 397.331 653.2C397.698 654.7 398.348 655.9 399.281 656.8C400.215 657.667 401.498 658.1 403.131 658.1ZM455.438 628.2L466.188 654.7L461.988 653.85L471.738 628.2H480.338L463.538 666.7L446.738 628.2H455.438ZM524.654 666.5L496.754 641.3L498.904 642.5L499.054 665H491.704V626.75H492.004L519.304 651.85L517.704 651.15L517.554 628.2H524.854V666.5H524.654ZM540.031 665V628.2H551.031C554.731 628.2 557.881 628.75 560.481 629.85C563.081 630.95 565.164 632.417 566.731 634.25C568.331 636.083 569.498 638.133 570.231 640.4C570.964 642.667 571.331 644.95 571.331 647.25C571.331 649.983 570.831 652.45 569.831 654.65C568.864 656.817 567.531 658.683 565.831 660.25C564.131 661.783 562.164 662.967 559.931 663.8C557.698 664.6 555.331 665 552.831 665H540.031ZM547.281 658H551.581C553.414 658 555.081 657.767 556.581 657.3C558.081 656.8 559.364 656.083 560.431 655.15C561.531 654.217 562.364 653.05 562.931 651.65C563.531 650.217 563.831 648.583 563.831 646.75C563.831 644.35 563.431 642.4 562.631 640.9C561.864 639.367 560.898 638.183 559.731 637.35C558.598 636.517 557.431 635.95 556.231 635.65C555.031 635.317 554.014 635.15 553.181 635.15H547.281V658ZM536.281 643.55H552.031V650.05H536.281V643.55Z" fill="#E57C23"/>
<path d="M877.643 631.85H887.593V665H880.293V638.85H877.643V631.85ZM898.08 661.4C898.08 660.367 898.447 659.5 899.18 658.8C899.947 658.1 900.78 657.75 901.68 657.75C902.513 657.75 903.297 658.1 904.03 658.8C904.797 659.5 905.18 660.367 905.18 661.4C905.18 662.5 904.797 663.383 904.03 664.05C903.297 664.683 902.513 665 901.68 665C900.78 665 899.947 664.683 899.18 664.05C898.447 663.383 898.08 662.5 898.08 661.4ZM926.624 665.05C924.724 665.05 922.924 664.717 921.224 664.05C919.557 663.383 918.074 662.367 916.774 661C915.507 659.6 914.507 657.85 913.774 655.75C913.04 653.617 912.674 651.117 912.674 648.25C912.674 645.05 913.024 642.383 913.724 640.25C914.424 638.083 915.39 636.35 916.624 635.05C917.89 633.75 919.374 632.833 921.074 632.3C922.774 631.733 924.624 631.45 926.624 631.45C928.524 631.45 930.307 631.783 931.974 632.45C933.674 633.117 935.157 634.15 936.424 635.55C937.724 636.917 938.74 638.667 939.474 640.8C940.207 642.9 940.574 645.383 940.574 648.25C940.574 651.217 940.207 653.767 939.474 655.9C938.74 658.033 937.724 659.783 936.424 661.15C935.124 662.483 933.64 663.467 931.974 664.1C930.307 664.733 928.524 665.05 926.624 665.05ZM926.574 658.1C928.24 658.1 929.54 657.667 930.474 656.8C931.407 655.9 932.057 654.683 932.424 653.15C932.824 651.617 933.024 649.917 933.024 648.05C933.024 646.217 932.824 644.583 932.424 643.15C932.057 641.717 931.407 640.583 930.474 639.75C929.54 638.883 928.24 638.45 926.574 638.45C924.94 638.45 923.657 638.883 922.724 639.75C921.79 640.617 921.14 641.783 920.774 643.25C920.407 644.717 920.224 646.367 920.224 648.2C920.224 650.033 920.407 651.7 920.774 653.2C921.14 654.7 921.79 655.9 922.724 656.8C923.657 657.667 924.94 658.1 926.574 658.1ZM963.02 665.05C961.12 665.05 959.32 664.717 957.62 664.05C955.954 663.383 954.47 662.367 953.17 661C951.904 659.6 950.904 657.85 950.17 655.75C949.437 653.617 949.07 651.117 949.07 648.25C949.07 645.05 949.42 642.383 950.12 640.25C950.82 638.083 951.787 636.35 953.02 635.05C954.287 633.75 955.77 632.833 957.47 632.3C959.17 631.733 961.02 631.45 963.02 631.45C964.92 631.45 966.704 631.783 968.37 632.45C970.07 633.117 971.554 634.15 972.82 635.55C974.12 636.917 975.137 638.667 975.87 640.8C976.604 642.9 976.97 645.383 976.97 648.25C976.97 651.217 976.604 653.767 975.87 655.9C975.137 658.033 974.12 659.783 972.82 661.15C971.52 662.483 970.037 663.467 968.37 664.1C966.704 664.733 964.92 665.05 963.02 665.05ZM962.97 658.1C964.637 658.1 965.937 657.667 966.87 656.8C967.804 655.9 968.454 654.683 968.82 653.15C969.22 651.617 969.42 649.917 969.42 648.05C969.42 646.217 969.22 644.583 968.82 643.15C968.454 641.717 967.804 640.583 966.87 639.75C965.937 638.883 964.637 638.45 962.97 638.45C961.337 638.45 960.054 638.883 959.12 639.75C958.187 640.617 957.537 641.783 957.17 643.25C956.804 644.717 956.62 646.367 956.62 648.2C956.62 650.033 956.804 651.7 957.17 653.2C957.537 654.7 958.187 655.9 959.12 656.8C960.054 657.667 961.337 658.1 962.97 658.1ZM999.417 665.05C997.517 665.05 995.717 664.717 994.017 664.05C992.35 663.383 990.867 662.367 989.567 661C988.3 659.6 987.3 657.85 986.567 655.75C985.833 653.617 985.467 651.117 985.467 648.25C985.467 645.05 985.817 642.383 986.517 640.25C987.217 638.083 988.183 636.35 989.417 635.05C990.683 633.75 992.167 632.833 993.867 632.3C995.567 631.733 997.417 631.45 999.417 631.45C1001.32 631.45 1003.1 631.783 1004.77 632.45C1006.47 633.117 1007.95 634.15 1009.22 635.55C1010.52 636.917 1011.53 638.667 1012.27 640.8C1013 642.9 1013.37 645.383 1013.37 648.25C1013.37 651.217 1013 653.767 1012.27 655.9C1011.53 658.033 1010.52 659.783 1009.22 661.15C1007.92 662.483 1006.43 663.467 1004.77 664.1C1003.1 664.733 1001.32 665.05 999.417 665.05ZM999.367 658.1C1001.03 658.1 1002.33 657.667 1003.27 656.8C1004.2 655.9 1004.85 654.683 1005.22 653.15C1005.62 651.617 1005.82 649.917 1005.82 648.05C1005.82 646.217 1005.62 644.583 1005.22 643.15C1004.85 641.717 1004.2 640.583 1003.27 639.75C1002.33 638.883 1001.03 638.45 999.367 638.45C997.733 638.45 996.45 638.883 995.517 639.75C994.583 640.617 993.933 641.783 993.567 643.25C993.2 644.717 993.017 646.367 993.017 648.2C993.017 650.033 993.2 651.7 993.567 653.2C993.933 654.7 994.583 655.9 995.517 656.8C996.45 657.667 997.733 658.1 999.367 658.1ZM1020.86 661.4C1020.86 660.367 1021.23 659.5 1021.96 658.8C1022.73 658.1 1023.56 657.75 1024.46 657.75C1025.3 657.75 1026.08 658.1 1026.81 658.8C1027.58 659.5 1027.96 660.367 1027.96 661.4C1027.96 662.5 1027.58 663.383 1026.81 664.05C1026.08 664.683 1025.3 665 1024.46 665C1023.56 665 1022.73 664.683 1021.96 664.05C1021.23 663.383 1020.86 662.5 1020.86 661.4ZM1049.41 665.05C1047.51 665.05 1045.71 664.717 1044.01 664.05C1042.34 663.383 1040.86 662.367 1039.56 661C1038.29 659.6 1037.29 657.85 1036.56 655.75C1035.82 653.617 1035.46 651.117 1035.46 648.25C1035.46 645.05 1035.81 642.383 1036.51 640.25C1037.21 638.083 1038.17 636.35 1039.41 635.05C1040.67 633.75 1042.16 632.833 1043.86 632.3C1045.56 631.733 1047.41 631.45 1049.41 631.45C1051.31 631.45 1053.09 631.783 1054.76 632.45C1056.46 633.117 1057.94 634.15 1059.21 635.55C1060.51 636.917 1061.52 638.667 1062.26 640.8C1062.99 642.9 1063.36 645.383 1063.36 648.25C1063.36 651.217 1062.99 653.767 1062.26 655.9C1061.52 658.033 1060.51 659.783 1059.21 661.15C1057.91 662.483 1056.42 663.467 1054.76 664.1C1053.09 664.733 1051.31 665.05 1049.41 665.05ZM1049.36 658.1C1051.02 658.1 1052.32 657.667 1053.26 656.8C1054.19 655.9 1054.84 654.683 1055.21 653.15C1055.61 651.617 1055.81 649.917 1055.81 648.05C1055.81 646.217 1055.61 644.583 1055.21 643.15C1054.84 641.717 1054.19 640.583 1053.26 639.75C1052.32 638.883 1051.02 638.45 1049.36 638.45C1047.72 638.45 1046.44 638.883 1045.51 639.75C1044.57 640.617 1043.92 641.783 1043.56 643.25C1043.19 644.717 1043.01 646.367 1043.01 648.2C1043.01 650.033 1043.19 651.7 1043.56 653.2C1043.92 654.7 1044.57 655.9 1045.51 656.8C1046.44 657.667 1047.72 658.1 1049.36 658.1ZM1085.8 665.05C1083.9 665.05 1082.1 664.717 1080.4 664.05C1078.74 663.383 1077.25 662.367 1075.95 661C1074.69 659.6 1073.69 657.85 1072.95 655.75C1072.22 653.617 1071.85 651.117 1071.85 648.25C1071.85 645.05 1072.2 642.383 1072.9 640.25C1073.6 638.083 1074.57 636.35 1075.8 635.05C1077.07 633.75 1078.55 632.833 1080.25 632.3C1081.95 631.733 1083.8 631.45 1085.8 631.45C1087.7 631.45 1089.49 631.783 1091.15 632.45C1092.85 633.117 1094.34 634.15 1095.6 635.55C1096.9 636.917 1097.92 638.667 1098.65 640.8C1099.39 642.9 1099.75 645.383 1099.75 648.25C1099.75 651.217 1099.39 653.767 1098.65 655.9C1097.92 658.033 1096.9 659.783 1095.6 661.15C1094.3 662.483 1092.82 663.467 1091.15 664.1C1089.49 664.733 1087.7 665.05 1085.8 665.05ZM1085.75 658.1C1087.42 658.1 1088.72 657.667 1089.65 656.8C1090.59 655.9 1091.24 654.683 1091.6 653.15C1092 651.617 1092.2 649.917 1092.2 648.05C1092.2 646.217 1092 644.583 1091.6 643.15C1091.24 641.717 1090.59 640.583 1089.65 639.75C1088.72 638.883 1087.42 638.45 1085.75 638.45C1084.12 638.45 1082.84 638.883 1081.9 639.75C1080.97 640.617 1080.32 641.783 1079.95 643.25C1079.59 644.717 1079.4 646.367 1079.4 648.2C1079.4 650.033 1079.59 651.7 1079.95 653.2C1080.32 654.7 1080.97 655.9 1081.9 656.8C1082.84 657.667 1084.12 658.1 1085.75 658.1ZM1122.2 665.05C1120.3 665.05 1118.5 664.717 1116.8 664.05C1115.13 663.383 1113.65 662.367 1112.35 661C1111.08 659.6 1110.08 657.85 1109.35 655.75C1108.62 653.617 1108.25 651.117 1108.25 648.25C1108.25 645.05 1108.6 642.383 1109.3 640.25C1110 638.083 1110.97 636.35 1112.2 635.05C1113.47 633.75 1114.95 632.833 1116.65 632.3C1118.35 631.733 1120.2 631.45 1122.2 631.45C1124.1 631.45 1125.88 631.783 1127.55 632.45C1129.25 633.117 1130.73 634.15 1132 635.55C1133.3 636.917 1134.32 638.667 1135.05 640.8C1135.78 642.9 1136.15 645.383 1136.15 648.25C1136.15 651.217 1135.78 653.767 1135.05 655.9C1134.32 658.033 1133.3 659.783 1132 661.15C1130.7 662.483 1129.22 663.467 1127.55 664.1C1125.88 664.733 1124.1 665.05 1122.2 665.05ZM1122.15 658.1C1123.82 658.1 1125.12 657.667 1126.05 656.8C1126.98 655.9 1127.63 654.683 1128 653.15C1128.4 651.617 1128.6 649.917 1128.6 648.05C1128.6 646.217 1128.4 644.583 1128 643.15C1127.63 641.717 1126.98 640.583 1126.05 639.75C1125.12 638.883 1123.82 638.45 1122.15 638.45C1120.52 638.45 1119.23 638.883 1118.3 639.75C1117.37 640.617 1116.72 641.783 1116.35 643.25C1115.98 644.717 1115.8 646.367 1115.8 648.2C1115.8 650.033 1115.98 651.7 1116.35 653.2C1116.72 654.7 1117.37 655.9 1118.3 656.8C1119.23 657.667 1120.52 658.1 1122.15 658.1ZM1174.46 628.2L1185.21 654.7L1181.01 653.85L1190.76 628.2H1199.36L1182.56 666.7L1165.76 628.2H1174.46ZM1243.67 666.5L1215.77 641.3L1217.92 642.5L1218.07 665H1210.72V626.75H1211.02L1238.32 651.85L1236.72 651.15L1236.57 628.2H1243.87V666.5H1243.67ZM1259.05 665V628.2H1270.05C1273.75 628.2 1276.9 628.75 1279.5 629.85C1282.1 630.95 1284.18 632.417 1285.75 634.25C1287.35 636.083 1288.52 638.133 1289.25 640.4C1289.98 642.667 1290.35 644.95 1290.35 647.25C1290.35 649.983 1289.85 652.45 1288.85 654.65C1287.88 656.817 1286.55 658.683 1284.85 660.25C1283.15 661.783 1281.18 662.967 1278.95 663.8C1276.72 664.6 1274.35 665 1271.85 665H1259.05ZM1266.3 658H1270.6C1272.43 658 1274.1 657.767 1275.6 657.3C1277.1 656.8 1278.38 656.083 1279.45 655.15C1280.55 654.217 1281.38 653.05 1281.95 651.65C1282.55 650.217 1282.85 648.583 1282.85 646.75C1282.85 644.35 1282.45 642.4 1281.65 640.9C1280.88 639.367 1279.92 638.183 1278.75 637.35C1277.62 636.517 1276.45 635.95 1275.25 635.65C1274.05 635.317 1273.03 635.15 1272.2 635.15H1266.3V658ZM1255.3 643.55H1271.05V650.05H1255.3V643.55Z" fill="#E57C23"/>
<path d="M183.392 975.4C181.425 975.4 179.509 975.033 177.642 974.3C175.775 973.567 174.325 972.683 173.292 971.65L177.042 965.85C177.642 966.583 178.492 967.2 179.592 967.7C180.725 968.167 181.809 968.4 182.842 968.4C183.609 968.4 184.325 968.233 184.992 967.9C185.659 967.567 186.192 967.067 186.592 966.4C186.992 965.733 187.192 964.917 187.192 963.95C187.192 962.883 186.975 961.95 186.542 961.15C186.142 960.35 185.542 959.733 184.742 959.3C183.975 958.833 183.059 958.6 181.992 958.6C180.959 958.6 179.975 958.75 179.042 959.05C178.109 959.317 177.009 959.783 175.742 960.45H175.692V941.85H192.242V948.85H181.942V954.2L181.092 952.7C181.559 952.633 182.009 952.583 182.442 952.55C182.875 952.517 183.309 952.5 183.742 952.5C186.075 952.5 188.042 953.017 189.642 954.05C191.275 955.083 192.525 956.45 193.392 958.15C194.259 959.85 194.692 961.7 194.692 963.7C194.692 965.9 194.192 967.883 193.192 969.65C192.192 971.417 190.825 972.817 189.092 973.85C187.392 974.883 185.492 975.4 183.392 975.4ZM217.871 975.05C215.971 975.05 214.171 974.717 212.471 974.05C210.804 973.383 209.321 972.367 208.021 971C206.754 969.6 205.754 967.85 205.021 965.75C204.288 963.617 203.921 961.117 203.921 958.25C203.921 955.05 204.271 952.383 204.971 950.25C205.671 948.083 206.638 946.35 207.871 945.05C209.138 943.75 210.621 942.833 212.321 942.3C214.021 941.733 215.871 941.45 217.871 941.45C219.771 941.45 221.554 941.783 223.221 942.45C224.921 943.117 226.404 944.15 227.671 945.55C228.971 946.917 229.988 948.667 230.721 950.8C231.454 952.9 231.821 955.383 231.821 958.25C231.821 961.217 231.454 963.767 230.721 965.9C229.988 968.033 228.971 969.783 227.671 971.15C226.371 972.483 224.888 973.467 223.221 974.1C221.554 974.733 219.771 975.05 217.871 975.05ZM217.821 968.1C219.488 968.1 220.788 967.667 221.721 966.8C222.654 965.9 223.304 964.683 223.671 963.15C224.071 961.617 224.271 959.917 224.271 958.05C224.271 956.217 224.071 954.583 223.671 953.15C223.304 951.717 222.654 950.583 221.721 949.75C220.788 948.883 219.488 948.45 217.821 948.45C216.188 948.45 214.904 948.883 213.971 949.75C213.038 950.617 212.388 951.783 212.021 953.25C211.654 954.717 211.471 956.367 211.471 958.2C211.471 960.033 211.654 961.7 212.021 963.2C212.388 964.7 213.038 965.9 213.971 966.8C214.904 967.667 216.188 968.1 217.821 968.1ZM254.267 975.05C252.367 975.05 250.567 974.717 248.867 974.05C247.201 973.383 245.717 972.367 244.417 971C243.151 969.6 242.151 967.85 241.417 965.75C240.684 963.617 240.317 961.117 240.317 958.25C240.317 955.05 240.667 952.383 241.367 950.25C242.067 948.083 243.034 946.35 244.267 945.05C245.534 943.75 247.017 942.833 248.717 942.3C250.417 941.733 252.267 941.45 254.267 941.45C256.167 941.45 257.951 941.783 259.617 942.45C261.317 943.117 262.801 944.15 264.067 945.55C265.367 946.917 266.384 948.667 267.117 950.8C267.851 952.9 268.217 955.383 268.217 958.25C268.217 961.217 267.851 963.767 267.117 965.9C266.384 968.033 265.367 969.783 264.067 971.15C262.767 972.483 261.284 973.467 259.617 974.1C257.951 974.733 256.167 975.05 254.267 975.05ZM254.217 968.1C255.884 968.1 257.184 967.667 258.117 966.8C259.051 965.9 259.701 964.683 260.067 963.15C260.467 961.617 260.667 959.917 260.667 958.05C260.667 956.217 260.467 954.583 260.067 953.15C259.701 951.717 259.051 950.583 258.117 949.75C257.184 948.883 255.884 948.45 254.217 948.45C252.584 948.45 251.301 948.883 250.367 949.75C249.434 950.617 248.784 951.783 248.417 953.25C248.051 954.717 247.867 956.367 247.867 958.2C247.867 960.033 248.051 961.7 248.417 963.2C248.784 964.7 249.434 965.9 250.367 966.8C251.301 967.667 252.584 968.1 254.217 968.1ZM275.714 971.4C275.714 970.367 276.081 969.5 276.814 968.8C277.581 968.1 278.414 967.75 279.314 967.75C280.147 967.75 280.931 968.1 281.664 968.8C282.431 969.5 282.814 970.367 282.814 971.4C282.814 972.5 282.431 973.383 281.664 974.05C280.931 974.683 280.147 975 279.314 975C278.414 975 277.581 974.683 276.814 974.05C276.081 973.383 275.714 972.5 275.714 971.4ZM304.258 975.05C302.358 975.05 300.558 974.717 298.858 974.05C297.191 973.383 295.708 972.367 294.408 971C293.141 969.6 292.141 967.85 291.408 965.75C290.674 963.617 290.308 961.117 290.308 958.25C290.308 955.05 290.658 952.383 291.358 950.25C292.058 948.083 293.024 946.35 294.258 945.05C295.524 943.75 297.008 942.833 298.708 942.3C300.408 941.733 302.258 941.45 304.258 941.45C306.158 941.45 307.941 941.783 309.608 942.45C311.308 943.117 312.791 944.15 314.058 945.55C315.358 946.917 316.374 948.667 317.108 950.8C317.841 952.9 318.208 955.383 318.208 958.25C318.208 961.217 317.841 963.767 317.108 965.9C316.374 968.033 315.358 969.783 314.058 971.15C312.758 972.483 311.274 973.467 309.608 974.1C307.941 974.733 306.158 975.05 304.258 975.05ZM304.208 968.1C305.874 968.1 307.174 967.667 308.108 966.8C309.041 965.9 309.691 964.683 310.058 963.15C310.458 961.617 310.658 959.917 310.658 958.05C310.658 956.217 310.458 954.583 310.058 953.15C309.691 951.717 309.041 950.583 308.108 949.75C307.174 948.883 305.874 948.45 304.208 948.45C302.574 948.45 301.291 948.883 300.358 949.75C299.424 950.617 298.774 951.783 298.408 953.25C298.041 954.717 297.858 956.367 297.858 958.2C297.858 960.033 298.041 961.7 298.408 963.2C298.774 964.7 299.424 965.9 300.358 966.8C301.291 967.667 302.574 968.1 304.208 968.1ZM340.654 975.05C338.754 975.05 336.954 974.717 335.254 974.05C333.587 973.383 332.104 972.367 330.804 971C329.537 969.6 328.537 967.85 327.804 965.75C327.071 963.617 326.704 961.117 326.704 958.25C326.704 955.05 327.054 952.383 327.754 950.25C328.454 948.083 329.421 946.35 330.654 945.05C331.921 943.75 333.404 942.833 335.104 942.3C336.804 941.733 338.654 941.45 340.654 941.45C342.554 941.45 344.337 941.783 346.004 942.45C347.704 943.117 349.187 944.15 350.454 945.55C351.754 946.917 352.771 948.667 353.504 950.8C354.237 952.9 354.604 955.383 354.604 958.25C354.604 961.217 354.237 963.767 353.504 965.9C352.771 968.033 351.754 969.783 350.454 971.15C349.154 972.483 347.671 973.467 346.004 974.1C344.337 974.733 342.554 975.05 340.654 975.05ZM340.604 968.1C342.271 968.1 343.571 967.667 344.504 966.8C345.437 965.9 346.087 964.683 346.454 963.15C346.854 961.617 347.054 959.917 347.054 958.05C347.054 956.217 346.854 954.583 346.454 953.15C346.087 951.717 345.437 950.583 344.504 949.75C343.571 948.883 342.271 948.45 340.604 948.45C338.971 948.45 337.687 948.883 336.754 949.75C335.821 950.617 335.171 951.783 334.804 953.25C334.437 954.717 334.254 956.367 334.254 958.2C334.254 960.033 334.437 961.7 334.804 963.2C335.171 964.7 335.821 965.9 336.754 966.8C337.687 967.667 338.971 968.1 340.604 968.1ZM377.051 975.05C375.151 975.05 373.351 974.717 371.651 974.05C369.984 973.383 368.501 972.367 367.201 971C365.934 969.6 364.934 967.85 364.201 965.75C363.467 963.617 363.101 961.117 363.101 958.25C363.101 955.05 363.451 952.383 364.151 950.25C364.851 948.083 365.817 946.35 367.051 945.05C368.317 943.75 369.801 942.833 371.501 942.3C373.201 941.733 375.051 941.45 377.051 941.45C378.951 941.45 380.734 941.783 382.401 942.45C384.101 943.117 385.584 944.15 386.851 945.55C388.151 946.917 389.167 948.667 389.901 950.8C390.634 952.9 391.001 955.383 391.001 958.25C391.001 961.217 390.634 963.767 389.901 965.9C389.167 968.033 388.151 969.783 386.851 971.15C385.551 972.483 384.067 973.467 382.401 974.1C380.734 974.733 378.951 975.05 377.051 975.05ZM377.001 968.1C378.667 968.1 379.967 967.667 380.901 966.8C381.834 965.9 382.484 964.683 382.851 963.15C383.251 961.617 383.451 959.917 383.451 958.05C383.451 956.217 383.251 954.583 382.851 953.15C382.484 951.717 381.834 950.583 380.901 949.75C379.967 948.883 378.667 948.45 377.001 948.45C375.367 948.45 374.084 948.883 373.151 949.75C372.217 950.617 371.567 951.783 371.201 953.25C370.834 954.717 370.651 956.367 370.651 958.2C370.651 960.033 370.834 961.7 371.201 963.2C371.567 964.7 372.217 965.9 373.151 966.8C374.084 967.667 375.367 968.1 377.001 968.1ZM429.307 938.2L440.057 964.7L435.857 963.85L445.607 938.2H454.207L437.407 976.7L420.607 938.2H429.307ZM498.523 976.5L470.623 951.3L472.773 952.5L472.923 975H465.573V936.75H465.873L493.173 961.85L491.573 961.15L491.423 938.2H498.723V976.5H498.523ZM513.9 975V938.2H524.9C528.6 938.2 531.75 938.75 534.35 939.85C536.95 940.95 539.034 942.417 540.6 944.25C542.2 946.083 543.367 948.133 544.1 950.4C544.834 952.667 545.2 954.95 545.2 957.25C545.2 959.983 544.7 962.45 543.7 964.65C542.734 966.817 541.4 968.683 539.7 970.25C538 971.783 536.034 972.967 533.8 973.8C531.567 974.6 529.2 975 526.7 975H513.9ZM521.15 968H525.45C527.284 968 528.95 967.767 530.45 967.3C531.95 966.8 533.234 966.083 534.3 965.15C535.4 964.217 536.234 963.05 536.8 961.65C537.4 960.217 537.7 958.583 537.7 956.75C537.7 954.35 537.3 952.4 536.5 950.9C535.734 949.367 534.767 948.183 533.6 947.35C532.467 946.517 531.3 945.95 530.1 945.65C528.9 945.317 527.884 945.15 527.05 945.15H521.15V968ZM510.15 953.55H525.9V960.05H510.15V953.55Z" fill="#E57C23"/>
<path d="M907.392 975.4C905.425 975.4 903.509 975.033 901.642 974.3C899.775 973.567 898.325 972.683 897.292 971.65L901.042 965.85C901.642 966.583 902.492 967.2 903.592 967.7C904.725 968.167 905.809 968.4 906.842 968.4C907.609 968.4 908.325 968.233 908.992 967.9C909.659 967.567 910.192 967.067 910.592 966.4C910.992 965.733 911.192 964.917 911.192 963.95C911.192 962.883 910.975 961.95 910.542 961.15C910.142 960.35 909.542 959.733 908.742 959.3C907.975 958.833 907.059 958.6 905.992 958.6C904.959 958.6 903.975 958.75 903.042 959.05C902.109 959.317 901.009 959.783 899.742 960.45H899.692V941.85H916.242V948.85H905.942V954.2L905.092 952.7C905.559 952.633 906.009 952.583 906.442 952.55C906.875 952.517 907.309 952.5 907.742 952.5C910.075 952.5 912.042 953.017 913.642 954.05C915.275 955.083 916.525 956.45 917.392 958.15C918.259 959.85 918.692 961.7 918.692 963.7C918.692 965.9 918.192 967.883 917.192 969.65C916.192 971.417 914.825 972.817 913.092 973.85C911.392 974.883 909.492 975.4 907.392 975.4ZM941.871 975.05C939.971 975.05 938.171 974.717 936.471 974.05C934.804 973.383 933.321 972.367 932.021 971C930.754 969.6 929.754 967.85 929.021 965.75C928.288 963.617 927.921 961.117 927.921 958.25C927.921 955.05 928.271 952.383 928.971 950.25C929.671 948.083 930.638 946.35 931.871 945.05C933.138 943.75 934.621 942.833 936.321 942.3C938.021 941.733 939.871 941.45 941.871 941.45C943.771 941.45 945.554 941.783 947.221 942.45C948.921 943.117 950.404 944.15 951.671 945.55C952.971 946.917 953.988 948.667 954.721 950.8C955.454 952.9 955.821 955.383 955.821 958.25C955.821 961.217 955.454 963.767 954.721 965.9C953.988 968.033 952.971 969.783 951.671 971.15C950.371 972.483 948.888 973.467 947.221 974.1C945.554 974.733 943.771 975.05 941.871 975.05ZM941.821 968.1C943.488 968.1 944.788 967.667 945.721 966.8C946.654 965.9 947.304 964.683 947.671 963.15C948.071 961.617 948.271 959.917 948.271 958.05C948.271 956.217 948.071 954.583 947.671 953.15C947.304 951.717 946.654 950.583 945.721 949.75C944.788 948.883 943.488 948.45 941.821 948.45C940.188 948.45 938.904 948.883 937.971 949.75C937.038 950.617 936.388 951.783 936.021 953.25C935.654 954.717 935.471 956.367 935.471 958.2C935.471 960.033 935.654 961.7 936.021 963.2C936.388 964.7 937.038 965.9 937.971 966.8C938.904 967.667 940.188 968.1 941.821 968.1ZM978.267 975.05C976.367 975.05 974.567 974.717 972.867 974.05C971.201 973.383 969.717 972.367 968.417 971C967.151 969.6 966.151 967.85 965.417 965.75C964.684 963.617 964.317 961.117 964.317 958.25C964.317 955.05 964.667 952.383 965.367 950.25C966.067 948.083 967.034 946.35 968.267 945.05C969.534 943.75 971.017 942.833 972.717 942.3C974.417 941.733 976.267 941.45 978.267 941.45C980.167 941.45 981.951 941.783 983.617 942.45C985.317 943.117 986.801 944.15 988.067 945.55C989.367 946.917 990.384 948.667 991.117 950.8C991.851 952.9 992.217 955.383 992.217 958.25C992.217 961.217 991.851 963.767 991.117 965.9C990.384 968.033 989.367 969.783 988.067 971.15C986.767 972.483 985.284 973.467 983.617 974.1C981.951 974.733 980.167 975.05 978.267 975.05ZM978.217 968.1C979.884 968.1 981.184 967.667 982.117 966.8C983.051 965.9 983.701 964.683 984.067 963.15C984.467 961.617 984.667 959.917 984.667 958.05C984.667 956.217 984.467 954.583 984.067 953.15C983.701 951.717 983.051 950.583 982.117 949.75C981.184 948.883 979.884 948.45 978.217 948.45C976.584 948.45 975.301 948.883 974.367 949.75C973.434 950.617 972.784 951.783 972.417 953.25C972.051 954.717 971.867 956.367 971.867 958.2C971.867 960.033 972.051 961.7 972.417 963.2C972.784 964.7 973.434 965.9 974.367 966.8C975.301 967.667 976.584 968.1 978.217 968.1ZM999.714 971.4C999.714 970.367 1000.08 969.5 1000.81 968.8C1001.58 968.1 1002.41 967.75 1003.31 967.75C1004.15 967.75 1004.93 968.1 1005.66 968.8C1006.43 969.5 1006.81 970.367 1006.81 971.4C1006.81 972.5 1006.43 973.383 1005.66 974.05C1004.93 974.683 1004.15 975 1003.31 975C1002.41 975 1001.58 974.683 1000.81 974.05C1000.08 973.383 999.714 972.5 999.714 971.4ZM1028.26 975.05C1026.36 975.05 1024.56 974.717 1022.86 974.05C1021.19 973.383 1019.71 972.367 1018.41 971C1017.14 969.6 1016.14 967.85 1015.41 965.75C1014.67 963.617 1014.31 961.117 1014.31 958.25C1014.31 955.05 1014.66 952.383 1015.36 950.25C1016.06 948.083 1017.02 946.35 1018.26 945.05C1019.52 943.75 1021.01 942.833 1022.71 942.3C1024.41 941.733 1026.26 941.45 1028.26 941.45C1030.16 941.45 1031.94 941.783 1033.61 942.45C1035.31 943.117 1036.79 944.15 1038.06 945.55C1039.36 946.917 1040.37 948.667 1041.11 950.8C1041.84 952.9 1042.21 955.383 1042.21 958.25C1042.21 961.217 1041.84 963.767 1041.11 965.9C1040.37 968.033 1039.36 969.783 1038.06 971.15C1036.76 972.483 1035.27 973.467 1033.61 974.1C1031.94 974.733 1030.16 975.05 1028.26 975.05ZM1028.21 968.1C1029.87 968.1 1031.17 967.667 1032.11 966.8C1033.04 965.9 1033.69 964.683 1034.06 963.15C1034.46 961.617 1034.66 959.917 1034.66 958.05C1034.66 956.217 1034.46 954.583 1034.06 953.15C1033.69 951.717 1033.04 950.583 1032.11 949.75C1031.17 948.883 1029.87 948.45 1028.21 948.45C1026.57 948.45 1025.29 948.883 1024.36 949.75C1023.42 950.617 1022.77 951.783 1022.41 953.25C1022.04 954.717 1021.86 956.367 1021.86 958.2C1021.86 960.033 1022.04 961.7 1022.41 963.2C1022.77 964.7 1023.42 965.9 1024.36 966.8C1025.29 967.667 1026.57 968.1 1028.21 968.1ZM1064.65 975.05C1062.75 975.05 1060.95 974.717 1059.25 974.05C1057.59 973.383 1056.1 972.367 1054.8 971C1053.54 969.6 1052.54 967.85 1051.8 965.75C1051.07 963.617 1050.7 961.117 1050.7 958.25C1050.7 955.05 1051.05 952.383 1051.75 950.25C1052.45 948.083 1053.42 946.35 1054.65 945.05C1055.92 943.75 1057.4 942.833 1059.1 942.3C1060.8 941.733 1062.65 941.45 1064.65 941.45C1066.55 941.45 1068.34 941.783 1070 942.45C1071.7 943.117 1073.19 944.15 1074.45 945.55C1075.75 946.917 1076.77 948.667 1077.5 950.8C1078.24 952.9 1078.6 955.383 1078.6 958.25C1078.6 961.217 1078.24 963.767 1077.5 965.9C1076.77 968.033 1075.75 969.783 1074.45 971.15C1073.15 972.483 1071.67 973.467 1070 974.1C1068.34 974.733 1066.55 975.05 1064.65 975.05ZM1064.6 968.1C1066.27 968.1 1067.57 967.667 1068.5 966.8C1069.44 965.9 1070.09 964.683 1070.45 963.15C1070.85 961.617 1071.05 959.917 1071.05 958.05C1071.05 956.217 1070.85 954.583 1070.45 953.15C1070.09 951.717 1069.44 950.583 1068.5 949.75C1067.57 948.883 1066.27 948.45 1064.6 948.45C1062.97 948.45 1061.69 948.883 1060.75 949.75C1059.82 950.617 1059.17 951.783 1058.8 953.25C1058.44 954.717 1058.25 956.367 1058.25 958.2C1058.25 960.033 1058.44 961.7 1058.8 963.2C1059.17 964.7 1059.82 965.9 1060.75 966.8C1061.69 967.667 1062.97 968.1 1064.6 968.1ZM1101.05 975.05C1099.15 975.05 1097.35 974.717 1095.65 974.05C1093.98 973.383 1092.5 972.367 1091.2 971C1089.93 969.6 1088.93 967.85 1088.2 965.75C1087.47 963.617 1087.1 961.117 1087.1 958.25C1087.1 955.05 1087.45 952.383 1088.15 950.25C1088.85 948.083 1089.82 946.35 1091.05 945.05C1092.32 943.75 1093.8 942.833 1095.5 942.3C1097.2 941.733 1099.05 941.45 1101.05 941.45C1102.95 941.45 1104.73 941.783 1106.4 942.45C1108.1 943.117 1109.58 944.15 1110.85 945.55C1112.15 946.917 1113.17 948.667 1113.9 950.8C1114.63 952.9 1115 955.383 1115 958.25C1115 961.217 1114.63 963.767 1113.9 965.9C1113.17 968.033 1112.15 969.783 1110.85 971.15C1109.55 972.483 1108.07 973.467 1106.4 974.1C1104.73 974.733 1102.95 975.05 1101.05 975.05ZM1101 968.1C1102.67 968.1 1103.97 967.667 1104.9 966.8C1105.83 965.9 1106.48 964.683 1106.85 963.15C1107.25 961.617 1107.45 959.917 1107.45 958.05C1107.45 956.217 1107.25 954.583 1106.85 953.15C1106.48 951.717 1105.83 950.583 1104.9 949.75C1103.97 948.883 1102.67 948.45 1101 948.45C1099.37 948.45 1098.08 948.883 1097.15 949.75C1096.22 950.617 1095.57 951.783 1095.2 953.25C1094.83 954.717 1094.65 956.367 1094.65 958.2C1094.65 960.033 1094.83 961.7 1095.2 963.2C1095.57 964.7 1096.22 965.9 1097.15 966.8C1098.08 967.667 1099.37 968.1 1101 968.1ZM1153.31 938.2L1164.06 964.7L1159.86 963.85L1169.61 938.2H1178.21L1161.41 976.7L1144.61 938.2H1153.31ZM1222.52 976.5L1194.62 951.3L1196.77 952.5L1196.92 975H1189.57V936.75H1189.87L1217.17 961.85L1215.57 961.15L1215.42 938.2H1222.72V976.5H1222.52ZM1237.9 975V938.2H1248.9C1252.6 938.2 1255.75 938.75 1258.35 939.85C1260.95 940.95 1263.03 942.417 1264.6 944.25C1266.2 946.083 1267.37 948.133 1268.1 950.4C1268.83 952.667 1269.2 954.95 1269.2 957.25C1269.2 959.983 1268.7 962.45 1267.7 964.65C1266.73 966.817 1265.4 968.683 1263.7 970.25C1262 971.783 1260.03 972.967 1257.8 973.8C1255.57 974.6 1253.2 975 1250.7 975H1237.9ZM1245.15 968H1249.45C1251.28 968 1252.95 967.767 1254.45 967.3C1255.95 966.8 1257.23 966.083 1258.3 965.15C1259.4 964.217 1260.23 963.05 1260.8 961.65C1261.4 960.217 1261.7 958.583 1261.7 956.75C1261.7 954.35 1261.3 952.4 1260.5 950.9C1259.73 949.367 1258.77 948.183 1257.6 947.35C1256.47 946.517 1255.3 945.95 1254.1 945.65C1252.9 945.317 1251.88 945.15 1251.05 945.15H1245.15V968ZM1234.15 953.55H1249.9V960.05H1234.15V953.55Z" fill="#E57C23"/>
<g filter="url(#filter4_d_362_133)">
<path d="M296.821 533.04C296.474 533.413 295.927 533.8 295.181 534.2C294.434 534.573 293.567 534.92 292.581 535.24C291.621 535.56 290.634 535.813 289.621 536C288.607 536.213 287.647 536.32 286.741 536.32C284.341 536.32 282.181 535.973 280.261 535.28C278.341 534.56 276.701 533.573 275.341 532.32C273.981 531.04 272.941 529.533 272.221 527.8C271.501 526.067 271.141 524.173 271.141 522.12C271.141 519.427 271.541 517.093 272.341 515.12C273.167 513.12 274.274 511.467 275.661 510.16C277.074 508.827 278.687 507.84 280.501 507.2C282.341 506.56 284.261 506.24 286.261 506.24C288.154 506.24 289.887 506.453 291.461 506.88C293.034 507.28 294.367 507.787 295.461 508.4L293.581 513.8C293.101 513.533 292.461 513.267 291.661 513C290.861 512.733 290.047 512.52 289.221 512.36C288.394 512.173 287.661 512.08 287.021 512.08C285.421 512.08 284.007 512.28 282.781 512.68C281.554 513.08 280.514 513.68 279.661 514.48C278.834 515.28 278.207 516.28 277.781 517.48C277.354 518.653 277.141 520.027 277.141 521.6C277.141 522.987 277.381 524.24 277.861 525.36C278.341 526.453 279.007 527.387 279.861 528.16C280.741 528.933 281.767 529.52 282.941 529.92C284.141 530.32 285.461 530.52 286.901 530.52C287.727 530.52 288.487 530.467 289.181 530.36C289.874 530.227 290.461 530.027 290.941 529.76V526.2H285.861V520.6H296.821V533.04ZM303.409 506.56H309.209V536H303.409V506.56ZM313.488 536L326.768 505.4H327.088L340.368 536H333.648L325.168 514.48L329.368 511.6L319.208 536H313.488ZM322.568 525.36H331.408L333.448 530.24H320.768L322.568 525.36ZM326.528 501.68C326.981 501.36 327.354 501.04 327.648 500.72C327.941 500.4 328.088 500.013 328.088 499.56C328.088 499.187 327.994 498.88 327.808 498.64C327.648 498.373 327.354 498.24 326.928 498.24C326.581 498.24 326.261 498.347 325.968 498.56C325.701 498.773 325.501 499.027 325.368 499.32L323.368 498.12C323.821 497.133 324.448 496.413 325.248 495.96C326.048 495.48 326.861 495.24 327.688 495.24C328.541 495.24 329.221 495.427 329.728 495.8C330.234 496.147 330.594 496.6 330.808 497.16C331.048 497.693 331.168 498.227 331.168 498.76C331.168 499.8 330.821 500.667 330.128 501.36C329.434 502.053 328.621 502.653 327.688 503.16L326.528 501.68ZM344.659 506.56H350.459V536H344.659V506.56ZM397.426 537.2L375.106 517.04L376.826 518L376.946 536H371.066V505.4H371.306L393.146 525.48L391.866 524.92L391.746 506.56H397.586V537.2H397.426ZM429.927 506.56V536H424.127V524.04H410.967V536H405.167V506.56H410.967V518.44H424.127V506.56H429.927ZM437.511 506.56H443.311V536H437.511V506.56ZM432.991 499.08H439.191L441.671 504.48H438.271L432.991 499.08Z" fill="black"/>
</g>
<g opacity="0.8" filter="url(#filter5_d_362_133)">
<rect x="103.875" y="905" width="509" height="108" rx="14" stroke="black" stroke-width="2" shape-rendering="crispEdges"/>
</g>
<g filter="url(#filter6_d_362_133)">
<path d="M172.743 843.04C172.396 843.413 171.849 843.8 171.103 844.2C170.356 844.573 169.489 844.92 168.503 845.24C167.543 845.56 166.556 845.813 165.543 846C164.529 846.213 163.569 846.32 162.663 846.32C160.263 846.32 158.103 845.973 156.183 845.28C154.263 844.56 152.623 843.573 151.263 842.32C149.903 841.04 148.863 839.533 148.143 837.8C147.423 836.067 147.063 834.173 147.063 832.12C147.063 829.427 147.463 827.093 148.263 825.12C149.089 823.12 150.196 821.467 151.583 820.16C152.996 818.827 154.609 817.84 156.423 817.2C158.263 816.56 160.183 816.24 162.183 816.24C164.076 816.24 165.809 816.453 167.383 816.88C168.956 817.28 170.289 817.787 171.383 818.4L169.503 823.8C169.023 823.533 168.383 823.267 167.583 823C166.783 822.733 165.969 822.52 165.143 822.36C164.316 822.173 163.583 822.08 162.943 822.08C161.343 822.08 159.929 822.28 158.703 822.68C157.476 823.08 156.436 823.68 155.583 824.48C154.756 825.28 154.129 826.28 153.703 827.48C153.276 828.653 153.063 830.027 153.063 831.6C153.063 832.987 153.303 834.24 153.783 835.36C154.263 836.453 154.929 837.387 155.783 838.16C156.663 838.933 157.689 839.52 158.863 839.92C160.063 840.32 161.383 840.52 162.823 840.52C163.649 840.52 164.409 840.467 165.103 840.36C165.796 840.227 166.383 840.027 166.863 839.76V836.2H161.783V830.6H172.743V843.04ZM179.331 816.56H185.131V846H179.331V816.56ZM189.41 846L202.69 815.4H203.01L216.29 846H209.57L201.09 824.48L205.29 821.6L195.13 846H189.41ZM198.49 835.36H207.33L209.37 840.24H196.69L198.49 835.36ZM202.45 811.68C202.903 811.36 203.276 811.04 203.57 810.72C203.863 810.4 204.01 810.013 204.01 809.56C204.01 809.187 203.916 808.88 203.73 808.64C203.57 808.373 203.276 808.24 202.85 808.24C202.503 808.24 202.183 808.347 201.89 808.56C201.623 808.773 201.423 809.027 201.29 809.32L199.29 808.12C199.743 807.133 200.37 806.413 201.17 805.96C201.97 805.48 202.783 805.24 203.61 805.24C204.463 805.24 205.143 805.427 205.65 805.8C206.156 806.147 206.516 806.6 206.73 807.16C206.97 807.693 207.09 808.227 207.09 808.76C207.09 809.8 206.743 810.667 206.05 811.36C205.356 812.053 204.543 812.653 203.61 813.16L202.45 811.68ZM220.581 816.56H226.381V846H220.581V816.56ZM252.868 827.04L252.708 828.52L253.588 827.4L263.188 816.56H270.708L258.548 829.76L270.748 846H263.387L254.308 833.44L252.868 834.88V846H246.988V816.56H252.868V827.04ZM299.912 816.56V846H294.112V834.04H280.952V846H275.152V816.56H280.952V828.44H294.112V816.56H299.912ZM312.695 835.12C312.695 836.053 312.975 836.947 313.535 837.8C314.095 838.653 314.829 839.347 315.735 839.88C316.669 840.413 317.682 840.68 318.775 840.68C319.975 840.68 321.042 840.413 321.975 839.88C322.909 839.347 323.642 838.653 324.175 837.8C324.735 836.947 325.015 836.053 325.015 835.12V816.56H330.735V835.24C330.735 837.4 330.202 839.32 329.135 841C328.069 842.653 326.629 843.96 324.815 844.92C323.002 845.853 320.989 846.32 318.775 846.32C316.589 846.32 314.589 845.853 312.775 844.92C310.989 843.96 309.562 842.653 308.495 841C307.429 839.32 306.895 837.4 306.895 835.24V816.56H312.695V835.12ZM345.37 836.84L334.53 816.56H341.69L349.29 831.84L347.57 831.96L355.05 816.56H362.21L351.17 836.84V846H345.37V836.84ZM366.597 816.56H386.677V822.16H372.397V828.44H385.037V834.04H372.397V840.4H387.237V846H366.597V816.56ZM379.277 813.68L376.157 810.72L377.517 810.32L374.357 813.68H369.317L376.717 806.32H376.757L384.317 813.68H379.277ZM389.557 804L383.637 809.4H380.237L383.357 804H389.557ZM419.598 847.2L397.278 827.04L398.998 828L399.118 846H393.238V815.4H393.478L415.318 835.48L414.038 834.92L413.918 816.56H419.758V847.2H419.598ZM446.227 827.04L446.067 828.52L446.947 827.4L456.547 816.56H464.067L451.907 829.76L464.107 846H456.747L447.667 833.44L446.227 834.88V846H440.347V816.56H446.227V827.04ZM493.271 816.56V846H487.471V834.04H474.311V846H468.511V816.56H474.311V828.44H487.471V816.56H493.271ZM500.855 816.56H506.655V846H500.855V816.56ZM511.215 809.24L505.295 814.64H501.895L505.015 809.24H511.215ZM536.333 843.56C536.013 843.827 535.413 844.187 534.533 844.64C533.68 845.093 532.626 845.493 531.373 845.84C530.12 846.187 528.733 846.347 527.213 846.32C524.893 846.267 522.813 845.853 520.973 845.08C519.16 844.28 517.613 843.2 516.333 841.84C515.08 840.48 514.12 838.92 513.453 837.16C512.786 835.4 512.453 833.52 512.453 831.52C512.453 829.28 512.786 827.227 513.453 825.36C514.146 823.493 515.12 821.88 516.373 820.52C517.653 819.16 519.173 818.107 520.933 817.36C522.693 816.613 524.64 816.24 526.773 816.24C528.746 816.24 530.493 816.507 532.013 817.04C533.533 817.573 534.773 818.147 535.733 818.76L533.453 824.24C532.786 823.733 531.893 823.213 530.773 822.68C529.68 822.12 528.413 821.84 526.973 821.84C525.853 821.84 524.773 822.08 523.733 822.56C522.72 823.013 521.813 823.667 521.013 824.52C520.24 825.373 519.626 826.373 519.173 827.52C518.72 828.64 518.493 829.867 518.493 831.2C518.493 832.613 518.693 833.907 519.093 835.08C519.52 836.253 520.12 837.267 520.893 838.12C521.666 838.947 522.586 839.587 523.653 840.04C524.746 840.493 525.973 840.72 527.333 840.72C528.906 840.72 530.253 840.467 531.373 839.96C532.493 839.453 533.346 838.92 533.933 838.36L536.333 843.56ZM566.904 816.56V846H561.104V834.04H547.944V846H542.144V816.56H547.944V828.44H561.104V816.56H566.904Z" fill="black"/>
</g>
<g opacity="0.8" filter="url(#filter7_d_362_133)">
<rect x="821" y="905" width="509" height="108" rx="14" stroke="black" stroke-width="2" shape-rendering="crispEdges"/>
</g>
<g filter="url(#filter8_d_362_133)">
<path d="M940.035 843.04C939.689 843.413 939.142 843.8 938.395 844.2C937.649 844.573 936.782 844.92 935.795 845.24C934.835 845.56 933.849 845.813 932.835 846C931.822 846.213 930.862 846.32 929.955 846.32C927.555 846.32 925.395 845.973 923.475 845.28C921.555 844.56 919.915 843.573 918.555 842.32C917.195 841.04 916.155 839.533 915.435 837.8C914.715 836.067 914.355 834.173 914.355 832.12C914.355 829.427 914.755 827.093 915.555 825.12C916.382 823.12 917.489 821.467 918.875 820.16C920.289 818.827 921.902 817.84 923.715 817.2C925.555 816.56 927.475 816.24 929.475 816.24C931.369 816.24 933.102 816.453 934.675 816.88C936.249 817.28 937.582 817.787 938.675 818.4L936.795 823.8C936.315 823.533 935.675 823.267 934.875 823C934.075 822.733 933.262 822.52 932.435 822.36C931.609 822.173 930.875 822.08 930.235 822.08C928.635 822.08 927.222 822.28 925.995 822.68C924.769 823.08 923.729 823.68 922.875 824.48C922.049 825.28 921.422 826.28 920.995 827.48C920.569 828.653 920.355 830.027 920.355 831.6C920.355 832.987 920.595 834.24 921.075 835.36C921.555 836.453 922.222 837.387 923.075 838.16C923.955 838.933 924.982 839.52 926.155 839.92C927.355 840.32 928.675 840.52 930.115 840.52C930.942 840.52 931.702 840.467 932.395 840.36C933.089 840.227 933.675 840.027 934.155 839.76V836.2H929.075V830.6H940.035V843.04ZM946.624 816.56H952.424V846H946.624V816.56ZM956.703 846L969.983 815.4H970.303L983.583 846H976.863L968.383 824.48L972.583 821.6L962.423 846H956.703ZM965.783 835.36H974.623L976.663 840.24H963.983L965.783 835.36ZM969.743 811.68C970.196 811.36 970.569 811.04 970.863 810.72C971.156 810.4 971.303 810.013 971.303 809.56C971.303 809.187 971.209 808.88 971.023 808.64C970.863 808.373 970.569 808.24 970.143 808.24C969.796 808.24 969.476 808.347 969.183 808.56C968.916 808.773 968.716 809.027 968.583 809.32L966.583 808.12C967.036 807.133 967.663 806.413 968.463 805.96C969.263 805.48 970.076 805.24 970.903 805.24C971.756 805.24 972.436 805.427 972.943 805.8C973.449 806.147 973.809 806.6 974.023 807.16C974.263 807.693 974.383 808.227 974.383 808.76C974.383 809.8 974.036 810.667 973.343 811.36C972.649 812.053 971.836 812.653 970.903 813.16L969.743 811.68ZM987.874 816.56H993.674V846H987.874V816.56ZM1021.92 836.84L1011.08 816.56H1018.24L1025.84 831.84L1024.12 831.96L1031.6 816.56H1038.76L1027.72 836.84V846H1021.92V836.84ZM1043.15 816.56H1063.23V822.16H1048.95V828.44H1061.59V834.04H1048.95V840.4H1063.79V846H1043.15V816.56ZM1055.31 814.16L1052.19 811.2L1053.55 810.8L1050.39 814.16H1045.35L1052.75 806.8H1052.79L1060.35 814.16H1055.31ZM1074.99 835.12C1074.99 836.053 1075.27 836.947 1075.83 837.8C1076.39 838.653 1077.12 839.347 1078.03 839.88C1078.96 840.413 1079.97 840.68 1081.07 840.68C1082.27 840.68 1083.33 840.413 1084.27 839.88C1085.2 839.347 1085.93 838.653 1086.47 837.8C1087.03 836.947 1087.31 836.053 1087.31 835.12V816.56H1093.03V835.24C1093.03 837.4 1092.49 839.32 1091.43 841C1090.36 842.653 1088.92 843.96 1087.11 844.92C1085.29 845.853 1083.28 846.32 1081.07 846.32C1078.88 846.32 1076.88 845.853 1075.07 844.92C1073.28 843.96 1071.85 842.653 1070.79 841C1069.72 839.32 1069.19 837.4 1069.19 835.24V816.56H1074.99V835.12ZM1111.03 816.56H1130.87V822.16H1123.71V846H1117.91V822.16H1111.03V816.56ZM1161.23 816.56V846H1155.43V834.04H1142.27V846H1136.47V816.56H1142.27V828.44H1155.43V816.56H1161.23ZM1168.81 816.56H1174.61V846H1168.81V816.56ZM1179.17 809.24L1173.25 814.64H1169.85L1172.97 809.24H1179.17ZM1204.29 843.56C1203.97 843.827 1203.37 844.187 1202.49 844.64C1201.64 845.093 1200.58 845.493 1199.33 845.84C1198.08 846.187 1196.69 846.347 1195.17 846.32C1192.85 846.267 1190.77 845.853 1188.93 845.08C1187.12 844.28 1185.57 843.2 1184.29 841.84C1183.04 840.48 1182.08 838.92 1181.41 837.16C1180.74 835.4 1180.41 833.52 1180.41 831.52C1180.41 829.28 1180.74 827.227 1181.41 825.36C1182.1 823.493 1183.08 821.88 1184.33 820.52C1185.61 819.16 1187.13 818.107 1188.89 817.36C1190.65 816.613 1192.6 816.24 1194.73 816.24C1196.7 816.24 1198.45 816.507 1199.97 817.04C1201.49 817.573 1202.73 818.147 1203.69 818.76L1201.41 824.24C1200.74 823.733 1199.85 823.213 1198.73 822.68C1197.64 822.12 1196.37 821.84 1194.93 821.84C1193.81 821.84 1192.73 822.08 1191.69 822.56C1190.68 823.013 1189.77 823.667 1188.97 824.52C1188.2 825.373 1187.58 826.373 1187.13 827.52C1186.68 828.64 1186.45 829.867 1186.45 831.2C1186.45 832.613 1186.65 833.907 1187.05 835.08C1187.48 836.253 1188.08 837.267 1188.85 838.12C1189.62 838.947 1190.54 839.587 1191.61 840.04C1192.7 840.493 1193.93 840.72 1195.29 840.72C1196.86 840.72 1198.21 840.467 1199.33 839.96C1200.45 839.453 1201.3 838.92 1201.89 838.36L1204.29 843.56ZM1234.86 816.56V846H1229.06V834.04H1215.9V846H1210.1V816.56H1215.9V828.44H1229.06V816.56H1234.86Z" fill="black"/>
</g>
<g filter="url(#filter9_d_362_133)">
<path d="M1035.38 543.04C1035.03 543.413 1034.48 543.8 1033.74 544.2C1032.99 544.573 1032.12 544.92 1031.14 545.24C1030.18 545.56 1029.19 545.813 1028.18 546C1027.16 546.213 1026.2 546.32 1025.3 546.32C1022.9 546.32 1020.74 545.973 1018.82 545.28C1016.9 544.56 1015.26 543.573 1013.9 542.32C1012.54 541.04 1011.5 539.533 1010.78 537.8C1010.06 536.067 1009.7 534.173 1009.7 532.12C1009.7 529.427 1010.1 527.093 1010.9 525.12C1011.72 523.12 1012.83 521.467 1014.22 520.16C1015.63 518.827 1017.24 517.84 1019.06 517.2C1020.9 516.56 1022.82 516.24 1024.82 516.24C1026.71 516.24 1028.44 516.453 1030.02 516.88C1031.59 517.28 1032.92 517.787 1034.02 518.4L1032.14 523.8C1031.66 523.533 1031.02 523.267 1030.22 523C1029.42 522.733 1028.6 522.52 1027.78 522.36C1026.95 522.173 1026.22 522.08 1025.58 522.08C1023.98 522.08 1022.56 522.28 1021.34 522.68C1020.11 523.08 1019.07 523.68 1018.22 524.48C1017.39 525.28 1016.76 526.28 1016.34 527.48C1015.91 528.653 1015.7 530.027 1015.7 531.6C1015.7 532.987 1015.94 534.24 1016.42 535.36C1016.9 536.453 1017.56 537.387 1018.42 538.16C1019.3 538.933 1020.32 539.52 1021.5 539.92C1022.7 540.32 1024.02 540.52 1025.46 540.52C1026.28 540.52 1027.04 540.467 1027.74 540.36C1028.43 540.227 1029.02 540.027 1029.5 539.76V536.2H1024.42V530.6H1035.38V543.04ZM1041.96 516.56H1047.76V546H1041.96V516.56ZM1052.04 546L1065.32 515.4H1065.64L1078.92 546H1072.2L1063.72 524.48L1067.92 521.6L1057.76 546H1052.04ZM1061.12 535.36H1069.96L1072 540.24H1059.32L1061.12 535.36ZM1065.08 511.68C1065.54 511.36 1065.91 511.04 1066.2 510.72C1066.5 510.4 1066.64 510.013 1066.64 509.56C1066.64 509.187 1066.55 508.88 1066.36 508.64C1066.2 508.373 1065.91 508.24 1065.48 508.24C1065.14 508.24 1064.82 508.347 1064.52 508.56C1064.26 508.773 1064.06 509.027 1063.92 509.32L1061.92 508.12C1062.38 507.133 1063 506.413 1063.8 505.96C1064.6 505.48 1065.42 505.24 1066.24 505.24C1067.1 505.24 1067.78 505.427 1068.28 505.8C1068.79 506.147 1069.15 506.6 1069.36 507.16C1069.6 507.693 1069.72 508.227 1069.72 508.76C1069.72 509.8 1069.38 510.667 1068.68 511.36C1067.99 512.053 1067.18 512.653 1066.24 513.16L1065.08 511.68ZM1083.21 516.56H1089.01V546H1083.21V516.56ZM1118.26 516.56C1121.33 516.56 1123.77 517.187 1125.58 518.44C1127.39 519.667 1128.3 521.507 1128.3 523.96C1128.3 525.773 1127.85 527.293 1126.94 528.52C1126.06 529.72 1124.85 530.627 1123.3 531.24C1121.78 531.827 1120.03 532.12 1118.06 532.12L1117.14 529C1119.57 529 1121.71 529.333 1123.58 530C1125.47 530.667 1126.97 531.627 1128.06 532.88C1129.15 534.107 1129.7 535.587 1129.7 537.32C1129.7 538.92 1129.41 540.28 1128.82 541.4C1128.26 542.493 1127.49 543.387 1126.5 544.08C1125.54 544.747 1124.45 545.24 1123.22 545.56C1121.99 545.853 1120.73 546 1119.42 546H1109.62V516.56H1118.26ZM1118.94 528.6C1120.09 528.6 1120.93 528.253 1121.46 527.56C1122.02 526.867 1122.3 526.08 1122.3 525.2C1122.3 524.187 1121.95 523.427 1121.26 522.92C1120.59 522.413 1119.69 522.16 1118.54 522.16H1115.42V528.6H1118.94ZM1119.14 540.6C1119.99 540.6 1120.77 540.493 1121.46 540.28C1122.15 540.04 1122.7 539.68 1123.1 539.2C1123.5 538.693 1123.7 538.067 1123.7 537.32C1123.7 536.467 1123.46 535.827 1122.98 535.4C1122.5 534.947 1121.87 534.64 1121.1 534.48C1120.35 534.293 1119.57 534.2 1118.74 534.2H1115.42V540.6H1119.14ZM1131.18 546L1144.46 515.4H1144.78L1158.06 546H1151.34L1142.86 524.48L1147.06 521.6L1136.9 546H1131.18ZM1140.26 535.36H1149.1L1151.14 540.24H1138.46L1140.26 535.36Z" fill="black"/>
</g>
<rect x="583" y="109" width="56" height="7" rx="1" fill="#EA4335"/>
<rect x="656" y="109" width="56" height="7" rx="1" fill="#4285F4"/>
<rect x="729" y="109" width="56" height="7" rx="1" fill="#E57C23"/>
<rect x="802" y="109" width="56" height="7" rx="1" fill="#34A853"/>
<defs>
<filter id="filter0_d_362_133" x="448.57" y="33.6399" width="550.832" height="61.8" filterUnits="userSpaceOnUse" color-interpolation-filters="sRGB">
<feFlood flood-opacity="0" result="BackgroundImageFix"/>
<feColorMatrix in="SourceAlpha" type="matrix" values="0 0 0 0 0 0 0 0 0 0 0 0 0 0 0 0 0 0 127 0" result="hardAlpha"/>
<feOffset dx="3" dy="5"/>
<feGaussianBlur stdDeviation="2"/>
<feComposite in2="hardAlpha" operator="out"/>
<feColorMatrix type="matrix" values="0 0 0 0 0 0 0 0 0 0 0 0 0 0 0 0 0 0 0.25 0"/>
<feBlend mode="normal" in2="BackgroundImageFix" result="effect1_dropShadow_362_133"/>
<feBlend mode="normal" in="SourceGraphic" in2="effect1_dropShadow_362_133" result="shape"/>
</filter>
<filter id="filter1_d_362_133" x="102.125" y="593" width="519" height="118" filterUnits="userSpaceOnUse" color-interpolation-filters="sRGB">
<feFlood flood-opacity="0" result="BackgroundImageFix"/>
<feColorMatrix in="SourceAlpha" type="matrix" values="0 0 0 0 0 0 0 0 0 0 0 0 0 0 0 0 0 0 127 0" result="hardAlpha"/>
<feOffset dx="3" dy="3"/>
<feGaussianBlur stdDeviation="2"/>
<feComposite in2="hardAlpha" operator="out"/>
<feColorMatrix type="matrix" values="0 0 0 0 0 0 0 0 0 0 0 0 0 0 0 0 0 0 0.25 0"/>
<feBlend mode="normal" in2="BackgroundImageFix" result="effect1_dropShadow_362_133"/>
<feBlend mode="normal" in="SourceGraphic" in2="effect1_dropShadow_362_133" result="shape"/>
</filter>
<filter id="filter2_d_362_133" x="827.125" y="593" width="519" height="118" filterUnits="userSpaceOnUse" color-interpolation-filters="sRGB">
<feFlood flood-opacity="0" result="BackgroundImageFix"/>
<feColorMatrix in="SourceAlpha" type="matrix" values="0 0 0 0 0 0 0 0 0 0 0 0 0 0 0 0 0 0 127 0" result="hardAlpha"/>
<feOffset dx="3" dy="3"/>
<feGaussianBlur stdDeviation="2"/>
<feComposite in2="hardAlpha" operator="out"/>
<feColorMatrix type="matrix" values="0 0 0 0 0 0 0 0 0 0 0 0 0 0 0 0 0 0 0.25 0"/>
<feBlend mode="normal" in2="BackgroundImageFix" result="effect1_dropShadow_362_133"/>
<feBlend mode="normal" in="SourceGraphic" in2="effect1_dropShadow_362_133" result="shape"/>
</filter>
<filter id="filter3_d_362_133" x="606.906" y="192.2" width="229.641" height="64" filterUnits="userSpaceOnUse" color-interpolation-filters="sRGB">
<feFlood flood-opacity="0" result="BackgroundImageFix"/>
<feColorMatrix in="SourceAlpha" type="matrix" values="0 0 0 0 0 0 0 0 0 0 0 0 0 0 0 0 0 0 127 0" result="hardAlpha"/>
<feOffset dy="4"/>
<feGaussianBlur stdDeviation="5"/>
<feComposite in2="hardAlpha" operator="out"/>
<feColorMatrix type="matrix" values="0 0 0 0 0 0 0 0 0 0 0 0 0 0 0 0 0 0 0.5 0"/>
<feBlend mode="normal" in2="BackgroundImageFix" result="effect1_dropShadow_362_133"/>
<feBlend mode="normal" in="SourceGraphic" in2="effect1_dropShadow_362_133" result="shape"/>
</filter>
<filter id="filter4_d_362_133" x="261.141" y="489.24" width="192.17" height="61.96" filterUnits="userSpaceOnUse" color-interpolation-filters="sRGB">
<feFlood flood-opacity="0" result="BackgroundImageFix"/>
<feColorMatrix in="SourceAlpha" type="matrix" values="0 0 0 0 0 0 0 0 0 0 0 0 0 0 0 0 0 0 127 0" result="hardAlpha"/>
<feOffset dy="4"/>
<feGaussianBlur stdDeviation="5"/>
<feComposite in2="hardAlpha" operator="out"/>
<feColorMatrix type="matrix" values="0 0 0 0 0 0 0 0 0 0 0 0 0 0 0 0 0 0 0.5 0"/>
<feBlend mode="normal" in2="BackgroundImageFix" result="effect1_dropShadow_362_133"/>
<feBlend mode="normal" in="SourceGraphic" in2="effect1_dropShadow_362_133" result="shape"/>
</filter>
<filter id="filter5_d_362_133" x="101.875" y="903" width="519" height="118" filterUnits="userSpaceOnUse" color-interpolation-filters="sRGB">
<feFlood flood-opacity="0" result="BackgroundImageFix"/>
<feColorMatrix in="SourceAlpha" type="matrix" values="0 0 0 0 0 0 0 0 0 0 0 0 0 0 0 0 0 0 127 0" result="hardAlpha"/>
<feOffset dx="3" dy="3"/>
<feGaussianBlur stdDeviation="2"/>
<feComposite in2="hardAlpha" operator="out"/>
<feColorMatrix type="matrix" values="0 0 0 0 0 0 0 0 0 0 0 0 0 0 0 0 0 0 0.25 0"/>
<feBlend mode="normal" in2="BackgroundImageFix" result="effect1_dropShadow_362_133"/>
<feBlend mode="normal" in="SourceGraphic" in2="effect1_dropShadow_362_133" result="shape"/>
</filter>
<filter id="filter6_d_362_133" x="137.062" y="798" width="439.842" height="63.2" filterUnits="userSpaceOnUse" color-interpolation-filters="sRGB">
<feFlood flood-opacity="0" result="BackgroundImageFix"/>
<feColorMatrix in="SourceAlpha" type="matrix" values="0 0 0 0 0 0 0 0 0 0 0 0 0 0 0 0 0 0 127 0" result="hardAlpha"/>
<feOffset dy="4"/>
<feGaussianBlur stdDeviation="5"/>
<feComposite in2="hardAlpha" operator="out"/>
<feColorMatrix type="matrix" values="0 0 0 0 0 0 0 0 0 0 0 0 0 0 0 0 0 0 0.5 0"/>
<feBlend mode="normal" in2="BackgroundImageFix" result="effect1_dropShadow_362_133"/>
<feBlend mode="normal" in="SourceGraphic" in2="effect1_dropShadow_362_133" result="shape"/>
</filter>
<filter id="filter7_d_362_133" x="819" y="903" width="519" height="118" filterUnits="userSpaceOnUse" color-interpolation-filters="sRGB">
<feFlood flood-opacity="0" result="BackgroundImageFix"/>
<feColorMatrix in="SourceAlpha" type="matrix" values="0 0 0 0 0 0 0 0 0 0 0 0 0 0 0 0 0 0 127 0" result="hardAlpha"/>
<feOffset dx="3" dy="3"/>
<feGaussianBlur stdDeviation="2"/>
<feComposite in2="hardAlpha" operator="out"/>
<feColorMatrix type="matrix" values="0 0 0 0 0 0 0 0 0 0 0 0 0 0 0 0 0 0 0.25 0"/>
<feBlend mode="normal" in2="BackgroundImageFix" result="effect1_dropShadow_362_133"/>
<feBlend mode="normal" in="SourceGraphic" in2="effect1_dropShadow_362_133" result="shape"/>
</filter>
<filter id="filter8_d_362_133" x="904.355" y="799.24" width="340.506" height="61.12" filterUnits="userSpaceOnUse" color-interpolation-filters="sRGB">
<feFlood flood-opacity="0" result="BackgroundImageFix"/>
<feColorMatrix in="SourceAlpha" type="matrix" values="0 0 0 0 0 0 0 0 0 0 0 0 0 0 0 0 0 0 127 0" result="hardAlpha"/>
<feOffset dy="4"/>
<feGaussianBlur stdDeviation="5"/>
<feComposite in2="hardAlpha" operator="out"/>
<feColorMatrix type="matrix" values="0 0 0 0 0 0 0 0 0 0 0 0 0 0 0 0 0 0 0.5 0"/>
<feBlend mode="normal" in2="BackgroundImageFix" result="effect1_dropShadow_362_133"/>
<feBlend mode="normal" in="SourceGraphic" in2="effect1_dropShadow_362_133" result="shape"/>
</filter>
<filter id="filter9_d_362_133" x="999.695" y="499.24" width="168.367" height="61.08" filterUnits="userSpaceOnUse" color-interpolation-filters="sRGB">
<feFlood flood-opacity="0" result="BackgroundImageFix"/>
<feColorMatrix in="SourceAlpha" type="matrix" values="0 0 0 0 0 0 0 0 0 0 0 0 0 0 0 0 0 0 127 0" result="hardAlpha"/>
<feOffset dy="4"/>
<feGaussianBlur stdDeviation="5"/>
<feComposite in2="hardAlpha" operator="out"/>
<feColorMatrix type="matrix" values="0 0 0 0 0 0 0 0 0 0 0 0 0 0 0 0 0 0 0.5 0"/>
<feBlend mode="normal" in2="BackgroundImageFix" result="effect1_dropShadow_362_133"/>
<feBlend mode="normal" in="SourceGraphic" in2="effect1_dropShadow_362_133" result="shape"/>
</filter>
</defs>
</svg>
