<svg width="48" height="48" viewBox="0 0 48 48" fill="none" xmlns="http://www.w3.org/2000/svg">
<g id="vuesax/bold/like">
<g id="like">
<path id="Vector" d="M16.78 36.98V16.66C16.78 15.86 17.02 15.08 17.46 14.42L22.92 6.30001C23.78 5.00001 25.92 4.08001 27.74 4.76001C29.7 5.42001 31 7.62001 30.58 9.58001L29.54 16.12C29.46 16.72 29.62 17.26 29.96 17.68C30.3 18.06 30.8 18.3 31.34 18.3H39.56C41.14 18.3 42.5 18.94 43.3 20.06C44.06 21.14 44.2 22.54 43.7 23.96L38.78 38.94C38.16 41.42 35.46 43.44 32.78 43.44H24.98C23.64 43.44 21.76 42.98 20.9 42.12L18.34 40.14C17.36 39.4 16.78 38.22 16.78 36.98Z" fill="white"/>
<path id="Vector_2" d="M10.42 12.76H8.36C5.26 12.76 4 13.96 4 16.92V37.04C4 40 5.26 41.2 8.36 41.2H10.42C13.52 41.2 14.78 40 14.78 37.04V16.92C14.78 13.96 13.52 12.76 10.42 12.76Z" fill="white"/>
</g>
</g>
</svg>
