<svg width="35" height="35" viewBox="0 0 35 35" fill="none" xmlns="http://www.w3.org/2000/svg">
<g id="vuesax/linear/like">
<g id="like">
<path id="Vector" d="M10.9082 26.7604L15.429 30.2604C16.0124 30.8437 17.3249 31.1354 18.1999 31.1354H23.7415C25.4915 31.1354 27.3874 29.8229 27.8249 28.0729L31.3249 17.4271C32.054 15.3854 30.7415 13.6354 28.554 13.6354H22.7207C21.8457 13.6354 21.1165 12.9062 21.2624 11.8854L21.9915 7.21874C22.2832 5.90624 21.4082 4.44791 20.0957 4.01041C18.929 3.57291 17.4707 4.15624 16.8874 5.03124L10.9082 13.9271" stroke="black" stroke-width="1.5" stroke-miterlimit="10"/>
<path id="Vector_2" d="M3.4707 26.7604V12.4688C3.4707 10.4271 4.3457 9.69794 6.38737 9.69794H7.8457C9.88737 9.69794 10.7624 10.4271 10.7624 12.4688V26.7604C10.7624 28.8021 9.88737 29.5313 7.8457 29.5313H6.38737C4.3457 29.5313 3.4707 28.8021 3.4707 26.7604Z" stroke="black" stroke-width="1.5" stroke-linecap="round" stroke-linejoin="round"/>
</g>
</g>
</svg>
